<?xml version="1.0" encoding="UTF-8"?>
<svg version="1.1" xmlns="http://www.w3.org/2000/svg" width="270" height="160">
<path d="M0 0 C3.72870149 0.71400667 5.36783436 1.77257731 7.9375 4.5625 C9.26244791 8.37172524 9.16696651 10.00522419 7.625 13.75 C6.4444865 15.71752251 5.21026283 17.65335576 3.9375 19.5625 C4.39125 20.614375 4.845 21.66625 5.3125 22.75 C8.51637198 30.52262216 8.20603116 41.1373715 5.4375 49 C2.85833112 54.47377568 -1.54545778 60.80397889 -7.0625 63.5625 C-6.19238281 64.18125 -6.19238281 64.18125 -5.3046875 64.8125 C2.69084429 70.72338818 8.24768524 76.85902575 10.9375 86.5625 C11.35097321 89.51468533 11.41540797 92.39699656 11.375 95.375 C11.36742676 96.16181152 11.35985352 96.94862305 11.35205078 97.75927734 C11.04218477 108.77196046 7.18174603 117.6476208 -0.83984375 125.24609375 C-10.99184998 133.57115408 -22.22455339 134.61990615 -34.88916016 133.79003906 C-44.88125468 132.74391099 -53.13444085 127.44363052 -59.375 119.75 C-65.90525895 110.2304127 -66.16907516 99.78823839 -65.0625 88.5625 C-63.50735829 80.87481833 -59.07416479 74.54970506 -53.0625 69.5625 C-48.92074616 68.15851565 -47.22179137 68.04725939 -43.25 69.8125 C-40.49666297 72.01516963 -39.19129551 73.66093146 -38.6875 77.1875 C-39.04515339 80.40638051 -39.62970048 81.88287115 -41.0625 84.6875 C-43.98104944 90.86857077 -44.26876875 97.39477369 -42.3671875 103.96484375 C-40.29239233 108.64620933 -37.75527756 111.30635694 -33.0625 113.5625 C-28.65926592 114.85387619 -25.71982227 114.77065205 -21.3125 113.375 C-16.9305929 110.93124412 -13.79163865 108.35088394 -12.0625 103.5625 C-10.56722518 96.89127389 -11.36537392 91.84521722 -14.0625 85.5625 C-17.82882974 79.62767738 -23.00300995 76.91729052 -29.0625 73.5625 C-55.25720013 58.92169117 -55.25720013 58.92169117 -59.58984375 44.00390625 C-61.55357181 33.86068279 -59.84634634 24.92578536 -54.58984375 16.0859375 C-49.70186468 9.17574487 -43.1578016 4.54383712 -35 2.1875 C-26.55072209 0.84634478 -20.13262438 1.75106678 -12.0625 4.5625 C-11.0725 4.8925 -10.0825 5.2225 -9.0625 5.5625 C-7.59387715 4.28969353 -6.12639142 3.01546566 -4.671875 1.7265625 C-3.0625 0.5625 -3.0625 0.5625 0 0 Z M-40.4375 26.375 C-42.55968265 30.53774289 -43.62863993 33.93721398 -42.62109375 38.609375 C-40.86256026 43.95531681 -38.12515243 47.76540643 -33.171875 50.671875 C-28.98220283 52.4408477 -24.41258825 52.3006987 -20.09765625 50.9453125 C-15.1412395 48.494218 -12.13941251 44.63939724 -10.0625 39.5625 C-9.02732249 34.29788293 -10.1018251 30.00351235 -13.0625 25.5625 C-17.01901788 21.65873569 -20.15546785 19.41278118 -25.75 19.25 C-32.38669429 19.33619083 -36.07579895 21.2098277 -40.4375 26.375 Z " fill="#012168" transform="translate(67.0625,24.4375)"/>
<path d="M0 0 C8.04270219 7.9407114 9.05022171 18.18663995 9.19024658 28.9836731 C9.19449646 29.7547641 9.19874634 30.5258551 9.203125 31.3203125 C9.20882507 32.13821259 9.21452515 32.95611267 9.22039795 33.79879761 C9.22977903 35.51477795 9.23635421 37.23077575 9.24023438 38.94677734 C9.24999997 41.56249083 9.28111166 44.17743698 9.3125 46.79296875 C9.31902606 48.46874539 9.32427809 50.14452757 9.328125 51.8203125 C9.3404718 52.59545197 9.3528186 53.37059143 9.36553955 54.16921997 C9.34584074 58.9904712 8.62451939 62.24003904 6 66.4375 C2.85350943 68.82449285 -0.14113846 68.91001366 -4 68.4375 C-6.64748202 66.63239862 -8.74080266 64.69669734 -11 62.4375 C-11.825 63.05625 -12.65 63.675 -13.5 64.3125 C-19.55616734 68.3121234 -26.86339509 69.36938725 -34 68.4375 C-41.06006575 66.65379201 -46.13918264 63.71132822 -50 57.4375 C-53.04662387 51.17616267 -53.12105608 43.75853261 -51.3828125 37.05859375 C-48.11216563 29.66345857 -41.95671404 24.9414797 -34.5625 22.0625 C-28.65828911 20.17085962 -23.03044203 18.42735266 -17 20.4375 C-14.12740756 23.31009244 -14 25.43849502 -14 29.4375 C-16.63246354 34.21328689 -20.45356118 34.82136788 -25.40625 36.3125 C-28.37126121 37.59852896 -29.42807072 38.64238071 -31 41.4375 C-31.59857186 46.06071436 -31.59857186 46.06071436 -29.74609375 50.12109375 C-26.99217627 52.19731342 -24.64322326 51.96712274 -21.29296875 51.86328125 C-17.39352072 51.13919294 -15.67729064 49.31558744 -13 46.4375 C-11.29190379 41.31321138 -11.77319685 35.92677073 -11.75 30.5625 C-11.729375 29.37785156 -11.70875 28.19320312 -11.6875 26.97265625 C-11.68234375 25.82925781 -11.6771875 24.68585937 -11.671875 23.5078125 C-11.6625293 22.46383301 -11.65318359 21.41985352 -11.64355469 20.34423828 C-12.05651305 16.97664772 -12.98765781 15.14832652 -15 12.4375 C-21.16359927 8.32843382 -26.5104957 9.57014983 -33.4140625 10.94140625 C-40.64539671 12.32868638 -40.64539671 12.32868638 -44.375 9.875 C-46.5996142 6.5380787 -46.50030235 4.36844707 -46 0.4375 C-42.20051604 -4.52828125 -34.75710135 -5.42301149 -28.875 -6.25 C-18.50317491 -7.08643751 -8.43851217 -6.88148851 0 0 Z " fill="#002068" transform="translate(232,37.5625)"/>
<path d="M0 0 C5.39996117 4.28820446 8.36267359 10.12435339 10.125 16.6875 C10.43634579 20.32381627 10.45284457 23.94948359 10.4609375 27.59765625 C10.4709227 29.1652494 10.4709227 29.1652494 10.48110962 30.76451111 C10.49120805 32.9674199 10.49592751 35.1703591 10.49560547 37.37329102 C10.49998986 40.74220904 10.53637109 44.10982814 10.57421875 47.47851562 C10.58008522 49.62239137 10.58405575 51.76627331 10.5859375 53.91015625 C10.60030853 54.9154689 10.61467957 55.92078156 10.62948608 56.95655823 C10.60049024 61.391997 10.56908543 63.9599098 8.21899414 67.81030273 C5.43099129 70.30965612 3.71371103 70.591048 0.0859375 70.8203125 C-2.95515148 70.61434233 -4.57970184 69.65489842 -6.875 67.6875 C-10.35953749 63.21356505 -10.30162294 59.34447064 -10.28125 53.9140625 C-10.29208618 53.0720932 -10.30292236 52.2301239 -10.31408691 51.36264038 C-10.34825962 48.67918187 -10.36391851 45.99614715 -10.375 43.3125 C-10.38963016 39.78345039 -10.42343749 36.25533703 -10.46875 32.7265625 C-10.46572876 31.92529938 -10.46270752 31.12403625 -10.45959473 30.29849243 C-10.52912783 25.04354907 -11.35226051 21.33203829 -13.875 16.6875 C-17.60684238 14.19960508 -20.56076928 14.29370612 -24.875 14.6875 C-28.29053858 15.54138464 -28.90966662 16.73773828 -30.95288086 19.69873047 C-33.38684474 24.0816457 -33.42786636 28.02007641 -33.37890625 32.9453125 C-33.38832748 33.8113913 -33.39774872 34.67747009 -33.40745544 35.5697937 C-33.43596462 38.31760707 -33.43918823 41.06455112 -33.4375 43.8125 C-33.44111291 46.56746205 -33.45067839 49.32179817 -33.47825623 52.07662964 C-33.49498958 53.78498434 -33.4979635 55.49354551 -33.48524475 57.20193481 C-33.52649335 61.86323728 -33.88043642 64.88325939 -36.875 68.6875 C-40.09022137 71.01576375 -42.98330425 71.08461181 -46.875 70.6875 C-50.66633605 68.96416543 -52.38034693 67.54537343 -53.875 63.6875 C-54.14242554 60.91760254 -54.14242554 60.91760254 -54.16552734 57.69726562 C-54.17828705 56.48921265 -54.19104675 55.28115967 -54.20419312 54.03649902 C-54.20641876 52.73539185 -54.20864441 51.43428467 -54.2109375 50.09375 C-54.21736702 48.74141296 -54.2240955 47.3890773 -54.23110962 46.03674316 C-54.24307 43.20561497 -54.24679158 40.3746087 -54.24560547 37.54345703 C-54.24540199 33.91832042 -54.27273838 30.29396521 -54.30714989 26.66901398 C-54.32939852 23.87742529 -54.33344371 21.08602557 -54.33238602 18.2943573 C-54.33588852 16.30901287 -54.35755879 14.3237274 -54.37948608 12.33850098 C-54.37333282 11.130448 -54.36717957 9.92239502 -54.36083984 8.67773438 C-54.36368988 7.61502319 -54.36653992 6.55231201 -54.36947632 5.45739746 C-53.74807826 1.9765252 -52.64542869 0.82346371 -49.875 -1.3125 C-46.00084484 -2.36908777 -43.84177224 -2.72996983 -40.125 -1.125 C-37.92573925 0.64662672 -36.4176716 2.33289599 -34.875 4.6875 C-34.029375 3.924375 -33.18375 3.16125 -32.3125 2.375 C-23.0473104 -5.15697861 -10.45423621 -6.05245254 0 0 Z " fill="#002068" transform="translate(135.875,35.3125)"/>
<path d="M0 0 C1.12535156 -0.05994141 1.12535156 -0.05994141 2.2734375 -0.12109375 C5.94304708 0.75059092 7.30469123 2.5009096 9.625 5.4375 C10.35200005 8.44734458 10.30897764 11.37783456 10.27197266 14.46289062 C10.28511505 15.81256172 10.28511505 15.81256172 10.29852295 17.1894989 C10.3204952 20.15807592 10.30597184 23.12515835 10.2890625 26.09375 C10.29243126 28.15971156 10.29728437 30.22567119 10.30355835 32.29162598 C10.31092674 36.61925139 10.30022496 40.94636044 10.27685547 45.27392578 C10.24836804 50.81930899 10.26477214 56.36348228 10.29471779 61.90882111 C10.31279146 66.17426662 10.30703234 70.43942559 10.29407883 74.70487976 C10.29074502 76.74940637 10.29483097 78.79395904 10.30647659 80.8384552 C10.31918621 83.69704014 10.29980665 86.55366997 10.27197266 89.41210938 C10.28209381 90.25589645 10.29221497 91.09968353 10.30264282 91.96903992 C10.2255457 96.24608546 10.00446023 97.94691559 7.30331421 101.43908691 C3.94155842 103.94744711 1.80577054 104.4375 -2.375 104.4375 C-6.10102871 102.82853306 -8.37185159 100.95044327 -10.375 97.4375 C-10.66584041 94.4874025 -10.78504273 91.75026898 -10.76318359 88.80102539 C-10.76844055 87.9306514 -10.77369751 87.0602774 -10.77911377 86.16352844 C-10.79231423 83.28722165 -10.78357474 80.41146865 -10.7734375 77.53515625 C-10.7754584 75.53502801 -10.77836998 73.53490049 -10.78213501 71.53477478 C-10.78655858 67.34252915 -10.78012686 63.15047529 -10.76611328 58.95825195 C-10.74903251 53.58685802 -10.75885544 48.21591415 -10.77683067 42.84453678 C-10.787677 38.71382768 -10.78421806 34.58322507 -10.7764473 30.45251274 C-10.77444707 28.47218205 -10.77689834 26.49184167 -10.78388596 24.51152229 C-10.79151307 21.74187791 -10.77987799 18.97295953 -10.76318359 16.20336914 C-10.76925629 15.38606323 -10.77532898 14.56875732 -10.78158569 13.72668457 C-10.73049971 9.14697864 -10.34724884 6.14938893 -7.375 2.4375 C-4.35292605 0.42278403 -3.45773301 0.10030966 0 0 Z " fill="#002069" transform="translate(258.375,1.5625)"/>
<path d="M0 0 C3.56829049 2.67621787 5.22704518 4.66546807 6 9 C6.09977408 10.76468088 6.14814663 12.53259732 6.16113281 14.30004883 C6.17074036 15.35827347 6.1803479 16.41649811 6.19024658 17.50679016 C6.19449646 18.64536972 6.19874634 19.78394928 6.203125 20.95703125 C6.20882507 22.13335617 6.21452515 23.30968109 6.22039795 24.52165222 C6.22984246 27.01060081 6.23637975 29.49956187 6.24023438 31.98852539 C6.24993614 35.78749512 6.28096411 39.58592293 6.3125 43.38476562 C6.31903071 45.80468429 6.32428091 48.22460682 6.328125 50.64453125 C6.3404718 51.77703812 6.3528186 52.90954498 6.36553955 54.07637024 C6.34843288 60.16229911 6.0242563 64.66186785 3 70 C0.684196 72.11730651 -0.81373567 72.94564924 -3.9609375 73.08984375 C-7.55255172 72.8294851 -9.54264643 72.35181044 -12.4375 70.125 C-15.03486427 66.59258459 -15.13232859 63.66946148 -15.16113281 59.41455078 C-15.17554413 57.69729294 -15.17554413 57.69729294 -15.19024658 55.94534302 C-15.19449646 54.70783295 -15.19874634 53.47032288 -15.203125 52.1953125 C-15.21167511 50.28841141 -15.21167511 50.28841141 -15.22039795 48.34298706 C-15.22985134 45.65131042 -15.23674656 42.95974537 -15.24023438 40.26806641 C-15.24571719 36.82587201 -15.26974499 33.38407355 -15.29820633 29.94200325 C-15.32135463 26.65146977 -15.3232837 23.36091601 -15.328125 20.0703125 C-15.3466452 18.22012009 -15.3466452 18.22012009 -15.36553955 16.33255005 C-15.36253845 15.18140717 -15.35953735 14.03026428 -15.35644531 12.84423828 C-15.36009094 11.83402618 -15.36373657 10.82381409 -15.36749268 9.7829895 C-14.93370662 6.4979661 -13.95687722 4.65551602 -12 2 C-7.98850232 -0.67433178 -4.71559339 -0.81902411 0 0 Z " fill="#002168" transform="translate(169,33)"/>
<path d="M0 0 C0.64571255 2.39836091 1.07779505 4.64829208 1.375 7.125 C1.71965145 10.315208 1.71965145 10.315208 5 12 C7.05709596 12.24055468 7.05709596 12.24055468 9.1875 12.125 C10.445625 12.08375 11.70375 12.0425 13 12 C12.76023437 12.61746094 12.52046875 13.23492187 12.2734375 13.87109375 C10.07674354 20.14599781 9.4781352 24.74963653 12 31 C12.70125 32.03125 13.4025 33.0625 14.125 34.125 C16.50342498 37.7719183 16.69990157 39.72282375 16 44 C14 47 14 47 11 49 C6.70206606 49.5719025 3.79350162 48.5720593 0.3125 46.0625 C-6.55905543 36.96233199 -8.9953583 28.30345251 -8 17 C-6.42191068 10.67946609 -3.92464238 5.18613457 0 0 Z " fill="#FC7C01" transform="translate(15,37)"/>
<path d="M0 0 C-1.17500529 2.54584481 -2.41974468 4.55554443 -4.125 6.8125 C-6.30855913 10.52455052 -6.33867224 12.76659699 -6 17 C-6.61875 16.67 -7.2375 16.34 -7.875 16 C-13.23506058 14.28478062 -18.39335399 13.90145755 -23.66015625 16.12109375 C-25.36077938 17.02655373 -27.05631659 17.94164445 -28.74609375 18.8671875 C-31.76208488 20.3830236 -33.69782368 20.76794798 -37 20 C-39.9375 18.0625 -39.9375 18.0625 -42 15 C-42.57322236 11.68262803 -42.26986046 9.11693021 -41 6 C-30.6328523 -5.56623948 -13.28290591 -6.64145295 0 0 Z " fill="#00C3BA" transform="translate(57,30)"/>
<path d="M0 0 C3.02519989 2.05971056 4.66926776 3.51573824 5.48046875 7.15625 C5.73681175 11.31316358 5.31925337 13.49537371 3.0625 17.0625 C-1.04811899 19.66309569 -4.2594664 20.05631455 -9 19 C-12.70219508 16.45474088 -13.7681855 14.81135075 -15 10.5 C-15 6.51887435 -14.5290797 5.03489564 -12 2 C-7.91125 -1.40729167 -5.05982822 -1.4456652 0 0 Z " fill="#002068" transform="translate(169,10)"/>
</svg>
