<?xml version="1.0" encoding="UTF-8"?>
<svg width="32px" height="32px" viewBox="0 0 32 32" version="1.1" xmlns="http://www.w3.org/2000/svg" xmlns:xlink="http://www.w3.org/1999/xlink">
    <title>Clipped Copy 7</title>
    <defs>
        <circle id="path-1" cx="16" cy="16" r="16"></circle>
        <rect id="path-3" x="0" y="0" width="55" height="32"></rect>
    </defs>
    <g id="🟢-Login" stroke="none" stroke-width="1" fill="none" fill-rule="evenodd">
        <g id="E1" transform="translate(-36, -264)">
            <g id="Group-3" transform="translate(16, 248)">
                <g id="Clipped-Copy-7" transform="translate(20, 16)">
                    <mask id="mask-2" fill="white">
                        <use xlink:href="#path-1"></use>
                    </mask>
                    <circle stroke="#979797" cx="16" cy="16" r="15.5"></circle>
                    <g id="Asset-1" mask="url(#mask-2)">
                        <g transform="translate(-3, 0)">
                            <mask id="mask-4" fill="white">
                                <use xlink:href="#path-3"></use>
                            </mask>
                            <g id="Rectangle" stroke="none" fill="none"></g>
                            <g id="Group" stroke="none" stroke-width="1" fill="none" fill-rule="evenodd" mask="url(#mask-4)">
                                <rect id="Rectangle" fill="#CB001C" fill-rule="nonzero" x="0" y="29.5321757" width="55" height="2.46782431"></rect>
                                <rect id="Rectangle" fill="#FFFFFF" fill-rule="nonzero" x="0" y="27.0806946" width="55" height="2.46782431"></rect>
                                <rect id="Rectangle" fill="#CB001C" fill-rule="nonzero" x="0" y="24.6128703" width="55" height="2.4514811"></rect>
                                <rect id="Rectangle" fill="#FFFFFF" fill-rule="nonzero" x="0" y="22.1613892" width="55" height="2.46782431"></rect>
                                <rect id="Rectangle" fill="#CB001C" fill-rule="nonzero" x="0" y="19.6935649" width="55" height="2.46782431"></rect>
                                <rect id="Rectangle" fill="#FFFFFF" fill-rule="nonzero" x="0" y="17.2257406" width="55" height="2.4514811"></rect>
                                <rect id="Rectangle" fill="#CB001C" fill-rule="nonzero" x="0" y="14.7742594" width="55" height="2.46782431"></rect>
                                <rect id="Rectangle" fill="#FFFFFF" fill-rule="nonzero" x="0" y="12.3064351" width="55" height="2.4514811"></rect>
                                <rect id="Rectangle" fill="#CB001C" fill-rule="nonzero" x="0" y="9.85495403" width="55" height="2.46782431"></rect>
                                <rect id="Rectangle" fill="#FFFFFF" fill-rule="nonzero" x="0" y="7.38712972" width="55" height="2.46782431"></rect>
                                <rect id="Rectangle" fill="#CB001C" fill-rule="nonzero" x="0" y="4.91930541" width="55" height="2.46782431"></rect>
                                <rect id="Rectangle" fill="#FFFFFF" fill-rule="nonzero" x="0" y="2.46782431" width="55" height="2.46782431"></rect>
                                <rect id="Rectangle" fill="#CB001C" fill-rule="nonzero" x="0" y="0" width="55" height="2.46782431"></rect>
                                <rect id="Rectangle" fill="#2A3560" fill-rule="nonzero" x="0" y="0" width="25.1236591" height="17.2257406"></rect>
                                <polygon id="Path" fill="#FFFFFF" fill-rule="nonzero" points="2.26162098 1.89581205 2.49106079 2.54954035 3.17938021 2.54954035 2.62216925 2.95812053 2.81883194 3.61184883 2.26162098 3.20326864 1.72079857 3.61184883 1.93384982 2.95812053 1.37663886 2.54954035 2.04856973 2.54954035"></polygon>
                                <polygon id="Path" fill="#FFFFFF" fill-rule="nonzero" points="2.26162098 4.77221655 2.49106079 5.42594484 3.17938021 5.42594484 2.62216925 5.83452503 2.81883194 6.48825332 2.26162098 6.07967314 1.72079857 6.48825332 1.93384982 5.83452503 1.37663886 5.42594484 2.04856973 5.42594484"></polygon>
                                <polygon id="Path" fill="#FFFFFF" fill-rule="nonzero" points="2.26162098 7.64862104 2.49106079 8.30234934 3.17938021 8.30234934 2.62216925 8.71092952 2.81883194 9.36465781 2.26162098 8.95607763 1.72079857 9.36465781 1.93384982 8.71092952 1.37663886 8.30234934 2.04856973 8.30234934"></polygon>
                                <polygon id="Path" fill="#FFFFFF" fill-rule="nonzero" points="2.26162098 10.5250255 2.49106079 11.1787538 3.17938021 11.1787538 2.62216925 11.587334 2.81883194 12.2247191 2.26162098 11.8324821 1.72079857 12.2247191 1.93384982 11.587334 1.37663886 11.1787538 2.04856973 11.1787538"></polygon>
                                <polygon id="Path" fill="#FFFFFF" fill-rule="nonzero" points="2.26162098 13.40143 2.49106079 14.0551583 3.17938021 14.0551583 2.62216925 14.4637385 2.81883194 15.1011236 2.26162098 14.7088866 1.72079857 15.1011236 1.93384982 14.4637385 1.37663886 14.0551583 2.04856973 14.0551583"></polygon>
                                <polygon id="Path" fill="#FFFFFF" fill-rule="nonzero" points="4.27741359 3.41573034 4.49046484 4.06945863 5.17878427 4.06945863 4.6215733 4.47803882 4.83462455 5.1154239 4.27741359 4.72318693 3.72020262 5.1154239 3.93325387 4.47803882 3.37604291 4.06945863 4.06436234 4.06945863"></polygon>
                                <polygon id="Path" fill="#FFFFFF" fill-rule="nonzero" points="4.27741359 6.29213483 4.49046484 6.94586313 5.17878427 6.94586313 4.6215733 7.3381001 4.83462455 7.9918284 4.27741359 7.59959142 3.72020262 7.9918284 3.93325387 7.3381001 3.37604291 6.94586313 4.06436234 6.94586313"></polygon>
                                <polygon id="Path" fill="#FFFFFF" fill-rule="nonzero" points="4.27741359 9.16853933 4.49046484 9.82226762 5.17878427 9.82226762 4.6215733 10.2145046 4.83462455 10.8682329 4.27741359 10.4759959 3.72020262 10.8682329 3.93325387 10.2145046 3.37604291 9.82226762 4.06436234 9.82226762"></polygon>
                                <polygon id="Path" fill="#FFFFFF" fill-rule="nonzero" points="4.27741359 12.0449438 4.49046484 12.6986721 5.17878427 12.6986721 4.6215733 13.0909091 4.83462455 13.7446374 4.27741359 13.3360572 3.72020262 13.7446374 3.93325387 13.0909091 3.37604291 12.6986721 4.06436234 12.6986721"></polygon>
                                <polygon id="Path" fill="#FFFFFF" fill-rule="nonzero" points="6.30959476 1.89581205 6.52264601 2.54954035 7.21096544 2.54954035 6.65375447 2.95812053 6.86680572 3.61184883 6.30959476 3.20326864 5.75238379 3.61184883 5.96543504 2.95812053 5.40822408 2.54954035 6.0965435 2.54954035"></polygon>
                                <polygon id="Path" fill="#FFFFFF" fill-rule="nonzero" points="6.30959476 4.77221655 6.52264601 5.42594484 7.21096544 5.42594484 6.65375447 5.83452503 6.86680572 6.48825332 6.30959476 6.07967314 5.75238379 6.48825332 5.96543504 5.83452503 5.40822408 5.42594484 6.0965435 5.42594484"></polygon>
                                <polygon id="Path" fill="#FFFFFF" fill-rule="nonzero" points="6.30959476 7.64862104 6.52264601 8.30234934 7.21096544 8.30234934 6.65375447 8.71092952 6.86680572 9.36465781 6.30959476 8.95607763 5.75238379 9.36465781 5.96543504 8.71092952 5.40822408 8.30234934 6.0965435 8.30234934"></polygon>
                                <polygon id="Path" fill="#FFFFFF" fill-rule="nonzero" points="6.30959476 10.5250255 6.52264601 11.1787538 7.21096544 11.1787538 6.65375447 11.587334 6.86680572 12.2247191 6.30959476 11.8324821 5.75238379 12.2247191 5.96543504 11.587334 5.40822408 11.1787538 6.0965435 11.1787538"></polygon>
                                <polygon id="Path" fill="#FFFFFF" fill-rule="nonzero" points="6.30959476 13.40143 6.52264601 14.0551583 7.21096544 14.0551583 6.65375447 14.4637385 6.86680572 15.1011236 6.30959476 14.7088866 5.75238379 15.1011236 5.96543504 14.4637385 5.40822408 14.0551583 6.0965435 14.0551583"></polygon>
                                <polygon id="Path" fill="#FFFFFF" fill-rule="nonzero" points="8.32538737 3.41573034 8.53843862 4.06945863 9.22675805 4.06945863 8.66954708 4.47803882 8.88259833 5.1154239 8.32538737 4.72318693 7.7681764 5.1154239 7.98122765 4.47803882 7.42401669 4.06945863 8.11233611 4.06945863"></polygon>
                                <polygon id="Path" fill="#FFFFFF" fill-rule="nonzero" points="8.32538737 6.29213483 8.53843862 6.94586313 9.22675805 6.94586313 8.66954708 7.3381001 8.88259833 7.9918284 8.32538737 7.59959142 7.7681764 7.9918284 7.98122765 7.3381001 7.42401669 6.94586313 8.11233611 6.94586313"></polygon>
                                <polygon id="Path" fill="#FFFFFF" fill-rule="nonzero" points="8.32538737 9.16853933 8.53843862 9.82226762 9.22675805 9.82226762 8.66954708 10.2145046 8.88259833 10.8682329 8.32538737 10.4759959 7.7681764 10.8682329 7.98122765 10.2145046 7.42401669 9.82226762 8.11233611 9.82226762"></polygon>
                                <polygon id="Path" fill="#FFFFFF" fill-rule="nonzero" points="8.32538737 12.0449438 8.53843862 12.6986721 9.22675805 12.6986721 8.66954708 13.0909091 8.88259833 13.7446374 8.32538737 13.3360572 7.7681764 13.7446374 7.98122765 13.0909091 7.42401669 12.6986721 8.11233611 12.6986721"></polygon>
                                <polygon id="Path" fill="#FFFFFF" fill-rule="nonzero" points="10.3575685 1.89581205 10.5706198 2.54954035 11.2589392 2.54954035 10.7017282 2.95812053 10.9147795 3.61184883 10.3575685 3.20326864 9.80035757 3.61184883 10.0134088 2.95812053 9.45619785 2.54954035 10.1445173 2.54954035"></polygon>
                                <polygon id="Path" fill="#FFFFFF" fill-rule="nonzero" points="10.3575685 4.77221655 10.5706198 5.42594484 11.2589392 5.42594484 10.7017282 5.83452503 10.9147795 6.48825332 10.3575685 6.07967314 9.80035757 6.48825332 10.0134088 5.83452503 9.45619785 5.42594484 10.1445173 5.42594484"></polygon>
                                <polygon id="Path" fill="#FFFFFF" fill-rule="nonzero" points="10.3575685 7.64862104 10.5706198 8.30234934 11.2589392 8.30234934 10.7017282 8.71092952 10.9147795 9.36465781 10.3575685 8.95607763 9.80035757 9.36465781 10.0134088 8.71092952 9.45619785 8.30234934 10.1445173 8.30234934"></polygon>
                                <polygon id="Path" fill="#FFFFFF" fill-rule="nonzero" points="10.3575685 10.5250255 10.5706198 11.1787538 11.2589392 11.1787538 10.7017282 11.587334 10.9147795 12.2247191 10.3575685 11.8324821 9.80035757 12.2247191 10.0134088 11.587334 9.45619785 11.1787538 10.1445173 11.1787538"></polygon>
                                <polygon id="Path" fill="#FFFFFF" fill-rule="nonzero" points="10.3575685 13.40143 10.5706198 14.0551583 11.2589392 14.0551583 10.7017282 14.4637385 10.9147795 15.1011236 10.3575685 14.7088866 9.80035757 15.1011236 10.0134088 14.4637385 9.45619785 14.0551583 10.1445173 14.0551583"></polygon>
                                <polygon id="Path" fill="#FFFFFF" fill-rule="nonzero" points="12.3733611 3.41573034 12.5700238 4.06945863 13.2583433 4.06945863 12.7011323 4.47803882 12.9141836 5.1154239 12.3733611 4.72318693 11.8161502 5.1154239 12.0128129 4.47803882 11.4719905 4.06945863 12.1439213 4.06945863"></polygon>
                                <polygon id="Path" fill="#FFFFFF" fill-rule="nonzero" points="12.3733611 6.29213483 12.5700238 6.94586313 13.2583433 6.94586313 12.7011323 7.3381001 12.9141836 7.9918284 12.3733611 7.59959142 11.8161502 7.9918284 12.0128129 7.3381001 11.4719905 6.94586313 12.1439213 6.94586313"></polygon>
                                <polygon id="Path" fill="#FFFFFF" fill-rule="nonzero" points="12.3733611 9.16853933 12.5700238 9.82226762 13.2583433 9.82226762 12.7011323 10.2145046 12.9141836 10.8682329 12.3733611 10.4759959 11.8161502 10.8682329 12.0128129 10.2145046 11.4719905 9.82226762 12.1439213 9.82226762"></polygon>
                                <polygon id="Path" fill="#FFFFFF" fill-rule="nonzero" points="12.3733611 12.0449438 12.5700238 12.6986721 13.2583433 12.6986721 12.7011323 13.0909091 12.9141836 13.7446374 12.3733611 13.3360572 11.8161502 13.7446374 12.0128129 13.0909091 11.4719905 12.6986721 12.1439213 12.6986721"></polygon>
                                <polygon id="Path" fill="#FFFFFF" fill-rule="nonzero" points="14.3891538 1.89581205 14.602205 2.54954035 15.2905244 2.54954035 14.7333135 2.95812053 14.9463647 3.61184883 14.3891538 3.20326864 13.8483313 3.61184883 14.044994 2.95812053 13.5041716 2.54954035 14.1761025 2.54954035"></polygon>
                                <polygon id="Path" fill="#FFFFFF" fill-rule="nonzero" points="14.3891538 4.77221655 14.602205 5.42594484 15.2905244 5.42594484 14.7333135 5.83452503 14.9463647 6.48825332 14.3891538 6.07967314 13.8483313 6.48825332 14.044994 5.83452503 13.5041716 5.42594484 14.1761025 5.42594484"></polygon>
                                <polygon id="Path" fill="#FFFFFF" fill-rule="nonzero" points="14.3891538 7.64862104 14.602205 8.30234934 15.2905244 8.30234934 14.7333135 8.71092952 14.9463647 9.36465781 14.3891538 8.95607763 13.8483313 9.36465781 14.044994 8.71092952 13.5041716 8.30234934 14.1761025 8.30234934"></polygon>
                                <polygon id="Path" fill="#FFFFFF" fill-rule="nonzero" points="14.3891538 10.5250255 14.602205 11.1787538 15.2905244 11.1787538 14.7333135 11.587334 14.9463647 12.2247191 14.3891538 11.8324821 13.8483313 12.2247191 14.044994 11.587334 13.5041716 11.1787538 14.1761025 11.1787538"></polygon>
                                <polygon id="Path" fill="#FFFFFF" fill-rule="nonzero" points="14.3891538 13.40143 14.602205 14.0551583 15.2905244 14.0551583 14.7333135 14.4637385 14.9463647 15.1011236 14.3891538 14.7088866 13.8483313 15.1011236 14.044994 14.4637385 13.5041716 14.0551583 14.1761025 14.0551583"></polygon>
                                <polygon id="Path" fill="#FFFFFF" fill-rule="nonzero" points="16.4049464 3.41573034 16.6179976 4.06945863 17.306317 4.06945863 16.7491061 4.47803882 16.9621573 5.1154239 16.4049464 4.72318693 15.8477354 5.1154239 16.0607867 4.47803882 15.5035757 4.06945863 16.1918951 4.06945863"></polygon>
                                <polygon id="Path" fill="#FFFFFF" fill-rule="nonzero" points="16.4049464 6.29213483 16.6179976 6.94586313 17.306317 6.94586313 16.7491061 7.3381001 16.9621573 7.9918284 16.4049464 7.59959142 15.8477354 7.9918284 16.0607867 7.3381001 15.5035757 6.94586313 16.1918951 6.94586313"></polygon>
                                <polygon id="Path" fill="#FFFFFF" fill-rule="nonzero" points="16.4049464 9.16853933 16.6179976 9.82226762 17.306317 9.82226762 16.7491061 10.2145046 16.9621573 10.8682329 16.4049464 10.4759959 15.8477354 10.8682329 16.0607867 10.2145046 15.5035757 9.82226762 16.1918951 9.82226762"></polygon>
                                <polygon id="Path" fill="#FFFFFF" fill-rule="nonzero" points="16.4049464 12.0449438 16.6179976 12.6986721 17.306317 12.6986721 16.7491061 13.0909091 16.9621573 13.7446374 16.4049464 13.3360572 15.8477354 13.7446374 16.0607867 13.0909091 15.5035757 12.6986721 16.1918951 12.6986721"></polygon>
                                <polygon id="Path" fill="#FFFFFF" fill-rule="nonzero" points="18.4371275 1.89581205 18.6501788 2.54954035 19.3384982 2.54954035 18.7812872 2.95812053 18.9943385 3.61184883 18.4371275 3.20326864 17.8963051 3.61184883 18.0929678 2.95812053 17.5521454 2.54954035 18.2240763 2.54954035"></polygon>
                                <polygon id="Path" fill="#FFFFFF" fill-rule="nonzero" points="18.4371275 4.77221655 18.6501788 5.42594484 19.3384982 5.42594484 18.7812872 5.83452503 18.9943385 6.48825332 18.4371275 6.07967314 17.8963051 6.48825332 18.0929678 5.83452503 17.5521454 5.42594484 18.2240763 5.42594484"></polygon>
                                <polygon id="Path" fill="#FFFFFF" fill-rule="nonzero" points="18.4371275 7.64862104 18.6501788 8.30234934 19.3384982 8.30234934 18.7812872 8.71092952 18.9943385 9.36465781 18.4371275 8.95607763 17.8963051 9.36465781 18.0929678 8.71092952 17.5521454 8.30234934 18.2240763 8.30234934"></polygon>
                                <polygon id="Path" fill="#FFFFFF" fill-rule="nonzero" points="18.4371275 10.5250255 18.6501788 11.1787538 19.3384982 11.1787538 18.7812872 11.587334 18.9943385 12.2247191 18.4371275 11.8324821 17.8963051 12.2247191 18.0929678 11.587334 17.5521454 11.1787538 18.2240763 11.1787538"></polygon>
                                <polygon id="Path" fill="#FFFFFF" fill-rule="nonzero" points="18.4371275 13.40143 18.6501788 14.0551583 19.3384982 14.0551583 18.7812872 14.4637385 18.9943385 15.1011236 18.4371275 14.7088866 17.8963051 15.1011236 18.0929678 14.4637385 17.5521454 14.0551583 18.2240763 14.0551583"></polygon>
                                <polygon id="Path" fill="#FFFFFF" fill-rule="nonzero" points="20.4529201 3.41573034 20.6659714 4.06945863 21.3542908 4.06945863 20.7970799 4.47803882 20.9937426 5.1154239 20.4529201 4.72318693 19.8957092 5.1154239 20.1087604 4.47803882 19.5515495 4.06945863 20.2398689 4.06945863"></polygon>
                                <polygon id="Path" fill="#FFFFFF" fill-rule="nonzero" points="20.4529201 6.29213483 20.6659714 6.94586313 21.3542908 6.94586313 20.7970799 7.3381001 20.9937426 7.9918284 20.4529201 7.59959142 19.8957092 7.9918284 20.1087604 7.3381001 19.5515495 6.94586313 20.2398689 6.94586313"></polygon>
                                <polygon id="Path" fill="#FFFFFF" fill-rule="nonzero" points="20.4529201 9.16853933 20.6659714 9.82226762 21.3542908 9.82226762 20.7970799 10.2145046 20.9937426 10.8682329 20.4529201 10.4759959 19.8957092 10.8682329 20.1087604 10.2145046 19.5515495 9.82226762 20.2398689 9.82226762"></polygon>
                                <polygon id="Path" fill="#FFFFFF" fill-rule="nonzero" points="20.4529201 12.0449438 20.6659714 12.6986721 21.3542908 12.6986721 20.7970799 13.0909091 20.9937426 13.7446374 20.4529201 13.3360572 19.8957092 13.7446374 20.1087604 13.0909091 19.5515495 12.6986721 20.2398689 12.6986721"></polygon>
                                <polygon id="Path" fill="#FFFFFF" fill-rule="nonzero" points="22.4851013 1.89581205 22.6981526 2.54954035 23.386472 2.54954035 22.829261 2.95812053 23.0423123 3.61184883 22.4851013 3.20326864 21.9278903 3.61184883 22.1409416 2.95812053 21.5837306 2.54954035 22.2720501 2.54954035"></polygon>
                                <polygon id="Path" fill="#FFFFFF" fill-rule="nonzero" points="22.4851013 4.77221655 22.6981526 5.42594484 23.386472 5.42594484 22.829261 5.83452503 23.0423123 6.48825332 22.4851013 6.07967314 21.9278903 6.48825332 22.1409416 5.83452503 21.5837306 5.42594484 22.2720501 5.42594484"></polygon>
                                <polygon id="Path" fill="#FFFFFF" fill-rule="nonzero" points="22.4851013 7.64862104 22.6981526 8.30234934 23.386472 8.30234934 22.829261 8.71092952 23.0423123 9.36465781 22.4851013 8.95607763 21.9278903 9.36465781 22.1409416 8.71092952 21.5837306 8.30234934 22.2720501 8.30234934"></polygon>
                                <polygon id="Path" fill="#FFFFFF" fill-rule="nonzero" points="22.4851013 10.5250255 22.6981526 11.1787538 23.386472 11.1787538 22.829261 11.587334 23.0423123 12.2247191 22.4851013 11.8324821 21.9278903 12.2247191 22.1409416 11.587334 21.5837306 11.1787538 22.2720501 11.1787538"></polygon>
                                <polygon id="Path" fill="#FFFFFF" fill-rule="nonzero" points="22.4851013 13.40143 22.6981526 14.0551583 23.386472 14.0551583 22.829261 14.4637385 23.0423123 15.1011236 22.4851013 14.7088866 21.9278903 15.1011236 22.1409416 14.4637385 21.5837306 14.0551583 22.2720501 14.0551583"></polygon>
                            </g>
                        </g>
                    </g>
                </g>
            </g>
        </g>
    </g>
</svg>