<?xml version="1.0" encoding="UTF-8"?>
<svg version="1.1" xmlns="http://www.w3.org/2000/svg" width="442" height="370">
<path d="M0 0 C0.76554199 -0.02320312 1.53108398 -0.04640625 2.31982422 -0.0703125 C8.88670592 0.02199596 13.72709952 2.57517441 18.37939453 7.17382812 C23.12005897 12.62550778 23.1518556 17.30097321 23.09765625 24.26171875 C22.69574422 29.0020784 21.25032927 32.58452371 18.8125 36.625 C17.99265625 37.99205078 17.99265625 37.99205078 17.15625 39.38671875 C14.16621583 43.51794929 10.70558308 46.94644448 7.0625 50.5 C6.01642578 51.53253906 6.01642578 51.53253906 4.94921875 52.5859375 C3.24146657 54.27029582 1.52920557 55.94977617 -0.1875 57.625 C0.83448486 57.26148438 1.85646973 56.89796875 2.90942383 56.5234375 C44.54068322 41.75066482 44.54068322 41.75066482 65.4375 35.875 C66.26338623 35.63523438 67.08927246 35.39546875 67.94018555 35.1484375 C73.67588384 33.60317921 81.21905198 31.74071456 86.73120117 34.63110352 C89.40119427 36.75306001 90.72971446 38.37664338 91.8125 41.625 C92.49241197 48.5374384 92.49241197 48.5374384 90.02734375 52.48046875 C85.97038797 57.02846199 80.34853288 59.39941418 75 62.125 C72.65686257 63.35057515 70.31548432 64.57895343 67.9765625 65.8125 C67.38192703 66.12489624 66.78729156 66.43729248 66.17463684 66.75915527 C58.98367159 70.55609304 51.99120264 74.68814663 44.99487305 78.83007812 C38.67232408 82.56736995 32.28227822 86.14856102 25.8125 89.625 C27.42318359 89.68107422 27.42318359 89.68107422 29.06640625 89.73828125 C30.5026362 89.80399112 31.93883262 89.87043668 33.375 89.9375 C34.07947266 89.96005859 34.78394531 89.98261719 35.50976562 90.00585938 C40.57205442 90.26247309 44.25805581 91.39266402 48.8125 93.625 C48.8125 94.285 48.8125 94.945 48.8125 95.625 C49.4725 95.625 50.1325 95.625 50.8125 95.625 C51.48404933 96.91413487 52.14958859 98.20640204 52.8125 99.5 C53.18375 100.21929687 53.555 100.93859375 53.9375 101.6796875 C54.8125 103.625 54.8125 103.625 54.8125 105.625 C56.03066406 105.4084375 57.24882812 105.191875 58.50390625 104.96875 C60.12755098 104.68719311 61.75125193 104.40596031 63.375 104.125 C64.17486328 103.98191406 64.97472656 103.83882813 65.79882812 103.69140625 C77.76413753 101.64021035 77.76413753 101.64021035 83.0625 104.1875 C86.3908025 107.13758631 87.56500344 109.36883526 88.8125 113.625 C88.8125 118.27631467 87.28286745 120.68300941 84.2862854 124.16461182 C81.95430301 126.47539569 79.33740662 127.80680046 76.41796875 129.2734375 C74.79217896 130.10367432 74.79217896 130.10367432 73.13354492 130.95068359 C71.7694751 131.62695801 70.40540527 132.30323242 69 133 C62.4721875 136.279375 62.4721875 136.279375 55.8125 139.625 C55.8125 150.845 55.8125 162.065 55.8125 173.625 C59.03 172.18125 62.2475 170.7375 65.5625 169.25 C120.62031757 145.05604253 120.62031757 145.05604253 134.8125 148.625 C137.91237897 150.36348883 140.19664896 152.39329791 141.8125 155.625 C142.12109375 157.76171875 142.12109375 157.76171875 142.25 160.3125 C142.31058594 161.14136719 142.37117188 161.97023437 142.43359375 162.82421875 C140.74031109 170.45996511 132.87903432 175.1127421 126.875 179.375 C125.17312548 180.60409522 123.47130315 181.83326271 121.76953125 183.0625 C120.92986816 183.66449219 120.09020508 184.26648438 119.22509766 184.88671875 C117.05702447 186.44881965 114.90517359 188.02937072 112.76171875 189.625 C106.15421892 194.54254936 99.45449896 199.25277043 92.5793457 203.78833008 C86.28416305 207.94996816 80.07686081 212.21770858 73.99609375 216.6875 C71.30117963 218.64926201 68.62635505 220.29592604 65.66015625 221.8125 C61.47319568 224.14752572 58.03550781 226.24709355 55.8125 230.625 C53.84919773 240.10358877 54.30850179 250.00844991 54.8125 259.625 C55.4516333 259.44324219 56.0907666 259.26148438 56.74926758 259.07421875 C59.70391426 258.24304955 62.66420456 257.43398042 65.625 256.625 C66.62982422 256.33882812 67.63464844 256.05265625 68.66992188 255.7578125 C75.35148913 253.95314482 81.87757825 252.6977373 88.8125 253.625 C92.0625 255.6875 92.0625 255.6875 93.8125 258.625 C94.1875 262 94.1875 262 92.8125 265.625 C89.5319155 268.82309398 85.91757201 271.57246399 81.8125 273.625 C82.575625 274.0375 83.33875 274.45 84.125 274.875 C86.85124138 276.65022695 88.32961784 277.74161803 89.8125 280.625 C89.31384531 288.07365436 84.81101228 292.45058699 79.8125 297.625 C73.94547221 302.7523452 67.64805047 307.3280813 59.8125 308.625 C58.80574219 308.50640625 57.79898437 308.3878125 56.76171875 308.265625 C50.67132024 308.81984524 46.4305173 312.09785438 41.375 315.375 C23.00679901 327.043373 23.00679901 327.043373 17.5625 326.5 C13.31042793 325.50784985 10.98220162 324.92002679 8.0625 321.6875 C6.8125 319.625 6.8125 319.625 6.8125 316.625 C-7.8274146 326.47028438 -21.26369288 337.48008119 -33.59765625 350.1171875 C-34.37616943 350.91133057 -35.15468262 351.70547363 -35.95678711 352.52368164 C-37.48689157 354.09152731 -39.00782854 355.66839167 -40.51782227 357.25561523 C-48.08478338 365.01431682 -55.78396693 370.70968419 -66.875 370.9375 C-74.04882182 370.86361924 -78.68753496 369.93662611 -83.9296875 364.9765625 C-89.13371157 359.2745457 -90.69560052 354.19109005 -90.48046875 346.5078125 C-89.04090794 332.34253412 -76.70413045 321.04125844 -67.46875 311.08984375 C-64.8942726 308.30817382 -62.41413938 305.45619612 -59.953125 302.57421875 C-57.46165517 299.82368016 -54.82453252 297.23625147 -52.1875 294.625 C-68.93031524 293.11409516 -68.93031524 293.11409516 -83.39306641 300.41967773 C-84.46426901 301.34589944 -85.52627196 302.2828721 -86.57861328 303.23046875 C-89.28366042 305.57511659 -92.23151635 307.55084174 -95.1875 309.5625 C-96.198125 310.27277344 -97.20875 310.98304688 -98.25 311.71484375 C-103.81746176 315.3351746 -107.47270915 317.26695428 -114.06640625 316.27734375 C-117.38109096 315.25791033 -119.09567732 313.30514781 -121.1875 310.625 C-122.41235812 308.17528376 -122.35472808 306.48265539 -122.375 303.75 C-122.38917969 302.88632812 -122.40335938 302.02265625 -122.41796875 301.1328125 C-122.17412478 298.47945943 -121.42913471 296.94710603 -120.1875 294.625 C-124.06089979 294.33339589 -127.9314852 294.15667303 -131.8125 294 C-132.90691406 293.91621094 -134.00132812 293.83242188 -135.12890625 293.74609375 C-138.41717695 293.64644918 -141.02779723 293.69077047 -144.1875 294.625 C-146.97885199 297.61276507 -148.4840215 300.94168653 -150.1875 304.625 C-157.01220189 313.26212273 -166.57556588 319.65250966 -177.1875 322.625 C-178.5075 322.625 -179.8275 322.625 -181.1875 322.625 C-181.331875 323.346875 -181.47625 324.06875 -181.625 324.8125 C-182.1875 327.625 -182.1875 327.625 -183 330 C-183.24063554 333.36889761 -181.86918064 335.01103093 -180.125 337.796875 C-178.57031902 340.8285029 -178.75771296 343.30949998 -179.1875 346.625 C-180.83889305 350.1636994 -181.90355229 351.43570153 -185.1875 353.625 C-189.11325665 354.43028341 -192.69913937 354.33412835 -196.34375 352.59765625 C-204.16746655 347.16619149 -209.21834084 338.89445655 -211.1875 329.625 C-211.19527354 328.06251934 -211.19535166 326.49998027 -211.1875 324.9375 C-211.26211628 322.66606644 -211.26211628 322.66606644 -212.1875 320.625 C-214.74749672 318.72187414 -217.35761739 317.4497692 -220.24609375 316.1015625 C-224.83655124 313.79718942 -229.83768055 310.3246389 -232.1875 305.625 C-232.91195312 305.67140625 -233.63640625 305.7178125 -234.3828125 305.765625 C-238.99997982 305.93799925 -242.39461182 305.96480922 -246.6875 304.125 C-251.20611804 299.60638196 -252.33458431 294.85796273 -252.625 288.5625 C-252.17552004 275.49162267 -246.92262038 263.88729579 -241.10546875 252.43408203 C-240.34362224 250.93267707 -239.60610675 249.41895507 -238.875 247.90234375 C-232.75910837 235.8616821 -223.08413419 228.43226252 -211.1875 222.6875 C-202.78631445 218.82325872 -202.78631445 218.82325872 -196.1875 212.625 C-195.45525816 208.19000334 -195.6456033 204.07390503 -196.1875 199.625 C-206.48957618 207.22826101 -216.54322265 215.06714593 -226.43652344 223.19433594 C-229.60038136 225.77941784 -232.81017998 228.30668166 -236.015625 230.83984375 C-238.23997212 232.66812906 -240.32999145 234.60156629 -242.4375 236.5625 C-245.61593156 239.35160561 -247.79496986 240.81597957 -252.1875 240.625 C-255.33210891 239.47600828 -257.44375771 238.49808878 -259.625 235.9375 C-261.49884771 228.23390387 -257.7982951 222.31660226 -254.109375 215.76953125 C-251.71074795 211.84494838 -249.11303272 208.17207447 -246.1875 204.625 C-257.59777799 210.66170018 -268.74016764 216.74168748 -278.1875 225.625 C-280.21740558 227.42291637 -282.25991074 229.20460068 -284.3125 230.9765625 C-285.50553263 232.02543702 -286.67565047 233.10141608 -287.8125 234.2109375 C-290.4909393 236.73592455 -291.68438263 237.63467533 -295.4375 237.5625 C-298.1875 236.625 -298.1875 236.625 -300.1875 234.625 C-300.70392282 230.41767287 -300.56490171 228.24891729 -298.3515625 224.58984375 C-297.51367188 223.59082031 -296.67578125 222.59179688 -295.8125 221.5625 C-294.8815645 220.4252598 -293.95325597 219.28586501 -293.02734375 218.14453125 C-292.31360596 217.27368896 -292.31360596 217.27368896 -291.58544922 216.38525391 C-289.81062975 214.15045677 -288.1888914 211.83000101 -286.56933594 209.48144531 C-273.7955755 190.96314829 -257.5101415 174.89149975 -241.6875 159 C-240.59369019 157.89918091 -240.59369019 157.89918091 -239.4777832 156.77612305 C-235.46515799 152.77543333 -231.35469585 148.95461007 -227.06298828 145.25537109 C-224.26668794 142.82453359 -221.57672619 140.28476319 -218.875 137.75 C-213.91912664 133.1308206 -208.83484407 128.77657544 -203.52734375 124.5625 C-201.13762858 122.65506133 -201.13762858 122.65506133 -199.00390625 120.375 C-197.1875 118.625 -197.1875 118.625 -195.1875 118.625 C-195.29191406 117.04912109 -195.29191406 117.04912109 -195.3984375 115.44140625 C-195.75767562 107.72651499 -195.89023071 101.81657163 -191.18359375 95.32421875 C-186.00385932 90.91485578 -181.63093842 90.43155248 -175.12207031 90.77026367 C-161.16090233 91.32793044 -153.70825729 85.347092 -143.47216797 76.55273438 C-140.27836289 73.85789735 -136.93069451 71.44392336 -133.5 69.0625 C-132.84620361 68.60359375 -132.19240723 68.1446875 -131.51879883 67.671875 C-35.40823758 0.66821129 -35.40823758 0.66821129 0 0 Z " fill="#FAD5BD" transform="translate(300.1875,-0.625)"/>
<path d="M0 0 C0.76554199 -0.02320312 1.53108398 -0.04640625 2.31982422 -0.0703125 C8.88670592 0.02199596 13.72709952 2.57517441 18.37939453 7.17382812 C23.12005897 12.62550778 23.1518556 17.30097321 23.09765625 24.26171875 C22.69574422 29.0020784 21.25032927 32.58452371 18.8125 36.625 C17.99265625 37.99205078 17.99265625 37.99205078 17.15625 39.38671875 C14.16621583 43.51794929 10.70558308 46.94644448 7.0625 50.5 C6.01642578 51.53253906 6.01642578 51.53253906 4.94921875 52.5859375 C3.24146657 54.27029582 1.52920557 55.94977617 -0.1875 57.625 C0.83448486 57.26148438 1.85646973 56.89796875 2.90942383 56.5234375 C44.54068322 41.75066482 44.54068322 41.75066482 65.4375 35.875 C66.26338623 35.63523438 67.08927246 35.39546875 67.94018555 35.1484375 C73.67588384 33.60317921 81.21905198 31.74071456 86.73120117 34.63110352 C89.40119427 36.75306001 90.72971446 38.37664338 91.8125 41.625 C92.49241197 48.5374384 92.49241197 48.5374384 90.02734375 52.48046875 C85.97034457 57.02851064 80.34849921 59.39923997 75 62.125 C72.6555987 63.35194402 70.31293969 64.58167865 67.97265625 65.81640625 C67.37781433 66.12900894 66.78297241 66.44161163 66.17010498 66.76368713 C59.9927939 70.02517811 53.95733366 73.51966962 47.9375 77.0625 C46.99543701 77.61679688 46.05337402 78.17109375 45.08276367 78.7421875 C44.17115479 79.27972656 43.2595459 79.81726563 42.3203125 80.37109375 C41.46254715 80.86608368 40.6047818 81.36107361 39.72102356 81.87106323 C36.82584285 83.56383331 36.82584285 83.56383331 34.27282715 85.44998169 C25.24728017 91.59383752 17.57942026 91.55124769 7.0859375 91.30859375 C5.403962 91.29550551 3.72195946 91.28555663 2.03994751 91.27857971 C-2.34934522 91.25208492 -6.73696904 91.18354427 -11.12561035 91.10565186 C-15.61085524 91.03361814 -20.09637256 91.00196142 -24.58203125 90.96679688 C-32.43613756 90.90008128 -40.28912744 90.79872615 -48.14248657 90.67210388 C-49.82402983 90.64609177 -51.50575556 90.625 -53.1875 90.625 C-89.1875 90.625 -125.1875 90.625 -161.1875 90.625 C-158.36817013 87.77755223 -155.66408735 85.07257446 -152.39453125 82.75 C-151.34108521 81.99565674 -151.34108521 81.99565674 -150.26635742 81.22607422 C-149.51845947 80.69771973 -148.77056152 80.16936523 -148 79.625 C-146.36693942 78.46128555 -144.73413342 77.29721379 -143.1015625 76.1328125 C-141.8626123 75.25157715 -141.8626123 75.25157715 -140.59863281 74.35253906 C-138.39239882 72.77180681 -136.20429065 71.17017305 -134.0234375 69.5546875 C-40.87712072 0.77141804 -40.87712072 0.77141804 0 0 Z " fill="#CBF2F2" transform="translate(300.1875,-0.625)"/>
<path d="M0 0 C1.75 2.9375 1.75 2.9375 2.125 6.3125 C-0.03274839 12.00110939 -4.88089323 15.25294661 -10.25 17.9375 C-9.1053125 18.55625 -9.1053125 18.55625 -7.9375 19.1875 C-5.21125862 20.96272695 -3.73288216 22.05411803 -2.25 24.9375 C-2.74865469 32.38615436 -7.25148772 36.76308699 -12.25 41.9375 C-18.11702779 47.0648452 -24.41444953 51.6405813 -32.25 52.9375 C-33.76013672 52.75960937 -33.76013672 52.75960937 -35.30078125 52.578125 C-41.39117976 53.13234524 -45.6319827 56.41035438 -50.6875 59.6875 C-69.05570099 71.355873 -69.05570099 71.355873 -74.5 70.8125 C-78.75207207 69.82034985 -81.08029838 69.23252679 -84 66 C-85.25 63.9375 -85.25 63.9375 -85.25 60.9375 C-99.8899146 70.78278438 -113.32619288 81.79258119 -125.66015625 94.4296875 C-126.43866943 95.22383057 -127.21718262 96.01797363 -128.01928711 96.83618164 C-129.54939157 98.40402731 -131.07032854 99.98089167 -132.58032227 101.56811523 C-140.14728338 109.32681682 -147.84646693 115.02218419 -158.9375 115.25 C-166.11132182 115.17611924 -170.75003496 114.24912611 -175.9921875 109.2890625 C-181.19621157 103.5870457 -182.75810052 98.50359005 -182.54296875 90.8203125 C-181.10316364 76.65263026 -168.76149063 65.34656641 -159.5234375 55.39453125 C-157.50815584 53.21650347 -155.55727564 51.00140714 -153.625 48.75 C-153.09216904 48.1658432 -152.55933807 47.5816864 -152.01036072 46.97982788 C-150.22145599 45.00245557 -150.22145599 45.00245557 -148.91212463 42.84292603 C-146.53108816 39.63485024 -144.25002753 37.37616543 -140.23368454 36.49526215 C-134.90583583 35.89972041 -129.56269766 35.98699781 -124.20969963 36.08985519 C-121.11043101 36.14924059 -118.01424425 36.15991247 -114.91444397 36.15859985 C-108.33814299 36.16527368 -101.76331552 36.23753904 -95.1875 36.3125 C-87.56078125 36.39049248 -79.93486727 36.44146473 -72.30774117 36.44743729 C-69.26083911 36.46073673 -66.21609467 36.5114725 -63.16966248 36.56454468 C-61.29532483 36.57249747 -59.42097973 36.57889701 -57.54663086 36.58349609 C-56.70539673 36.60828537 -55.8641626 36.63307465 -54.99743652 36.65861511 C-49.46346983 36.62283782 -46.64468621 35.31905539 -42.63942814 31.49355507 C-37.79928086 26.07295396 -37.73520479 20.48056059 -37.5625 13.5625 C-37.52833984 12.63566406 -37.49417969 11.70882813 -37.45898438 10.75390625 C-37.37700448 8.48189188 -37.30769506 6.21023896 -37.25 3.9375 C-33.65202142 2.91430075 -30.04585716 1.9234142 -26.4375 0.9375 C-24.93026367 0.50824219 -24.93026367 0.50824219 -23.39257812 0.0703125 C-6.9060001 -4.38265391 -6.9060001 -4.38265391 0 0 Z " fill="#CBF2F2" transform="translate(392.25,255.0625)"/>
<path d="M0 0 C0.41929033 10.18730776 0.73795436 20.37252867 0.93261909 30.56674385 C1.02611948 35.30234009 1.15257467 40.031989 1.35791016 44.76416016 C2.75990346 77.9278009 2.75990346 77.9278009 -3.82543945 85.47436523 C-7.46542982 88.65562179 -11.34312318 90.88311758 -15.73008728 92.87687683 C-19.36938143 94.67755205 -22.33998787 97.21853263 -25.4375 99.8125 C-26.56127312 100.70242162 -27.68722692 101.58960441 -28.81640625 102.47265625 C-35.13821972 107.47846134 -41.40637808 112.50697168 -47.3125 118 C-50.46643321 120.76210037 -52.64701515 122.18926021 -57 122 C-60.14460891 120.85100828 -62.25625771 119.87308878 -64.4375 117.3125 C-66.31134771 109.60890387 -62.6107951 103.69160226 -58.921875 97.14453125 C-56.52324795 93.21994838 -53.92553272 89.54707447 -51 86 C-62.41027799 92.03670018 -73.55266764 98.11668748 -83 107 C-85.02990558 108.79791637 -87.07241074 110.57960068 -89.125 112.3515625 C-90.31803263 113.40043702 -91.48815047 114.47641608 -92.625 115.5859375 C-95.3034393 118.11092455 -96.49688263 119.00967533 -100.25 118.9375 C-103 118 -103 118 -105 116 C-105.51642282 111.79267287 -105.37740171 109.62391729 -103.1640625 105.96484375 C-102.32617188 104.96582031 -101.48828125 103.96679688 -100.625 102.9375 C-99.6940645 101.8002598 -98.76575597 100.66086501 -97.83984375 99.51953125 C-97.36401855 98.93896973 -96.88819336 98.3584082 -96.39794922 97.76025391 C-94.62312975 95.52545677 -93.0013914 93.20500101 -91.38183594 90.85644531 C-78.6080755 72.33814829 -62.3226415 56.26649975 -46.5 40.375 C-45.77079346 39.64112061 -45.04158691 38.90724121 -44.2902832 38.15112305 C-40.27765799 34.15043333 -36.16719585 30.32961007 -31.87548828 26.63037109 C-29.07918794 24.19953359 -26.38922619 21.65976319 -23.6875 19.125 C-18.73162664 14.5058206 -13.64734407 10.15157544 -8.33984375 5.9375 C-5.95012858 4.03006133 -5.95012858 4.03006133 -3.81640625 1.75 C-2 0 -2 0 0 0 Z " fill="#CBF2F2" transform="translate(105,118)"/>
<path d="M0 0 C1.97465037 1.4208316 3.73994317 2.92154992 5.51953125 4.578125 C6.12023437 5.07828125 6.7209375 5.5784375 7.33984375 6.09375 C14.77285828 12.72232573 20.03894772 23.34847717 20.69921875 33.28125 C20.99438919 46.0719689 18.53969408 54.8226349 11.51953125 65.578125 C10.52953125 64.711875 9.53953125 63.845625 8.51953125 62.953125 C0.06835846 55.75774897 -7.79674869 50.86542348 -18.48046875 47.578125 C-13.73046875 43.578125 -13.73046875 43.578125 -11.48046875 43.578125 C-11.19171875 42.85625 -10.90296875 42.134375 -10.60546875 41.390625 C-9.48046875 38.578125 -9.48046875 38.578125 -8.29296875 36.328125 C-7.07694574 32.21235481 -7.27111771 28.69132477 -8.48046875 24.578125 C-10.66096687 20.92786075 -13.22511993 18.33794139 -16.85546875 16.140625 C-23.20361655 14.78030761 -28.05856189 15.07337035 -33.71484375 18.2578125 C-37.4267008 21.03349322 -39.03953125 24.24325597 -39.890625 28.75 C-40.2949929 34.76367643 -38.39698849 39.06203927 -34.48046875 43.578125 C-32.84099285 44.94475382 -31.17867665 46.2852037 -29.48046875 47.578125 C-30.23070312 47.86945313 -30.9809375 48.16078125 -31.75390625 48.4609375 C-42.07758589 52.5956102 -50.65516131 56.59745732 -57.48046875 65.578125 C-63.54872029 60.37676654 -66.80106912 52.39269987 -67.71875 44.53881836 C-68.60106948 30.42332866 -66.21782087 18.78419237 -56.7109375 7.796875 C-41.08859232 -7.74339131 -19.15146375 -10.9781619 0 0 Z " fill="#FEFDFD" transform="translate(253.48046875,127.421875)"/>
<path d="M0 0 C2.92865036 2.35199133 4.85947204 4.33895501 5.40136719 8.09106445 C5.46517578 9.35370117 5.46517578 9.35370117 5.53027344 10.6418457 C5.59085937 11.47071289 5.65144531 12.29958008 5.71386719 13.15356445 C4.02058452 20.78931081 -3.84069224 25.44208781 -9.84472656 29.7043457 C-11.54660108 30.93344092 -13.24842341 32.16260841 -14.95019531 33.3918457 C-15.7898584 33.99383789 -16.62952148 34.59583008 -17.49462891 35.21606445 C-19.6627021 36.77816536 -21.81455297 38.35871642 -23.95800781 39.9543457 C-30.56550764 44.87189506 -37.26522761 49.58211613 -44.14038086 54.11767578 C-55.33008414 61.51499813 -66.25700738 69.23745048 -76.70629883 77.65332031 C-80.81406471 80.9543457 -80.81406471 80.9543457 -81.90722656 80.9543457 C-81.90722656 62.4743457 -81.90722656 43.9943457 -81.90722656 24.9543457 C-72.67935087 20.34040786 -63.81860561 16.10984141 -54.21972656 12.5168457 C-53.60825775 12.28677826 -52.99678894 12.05671082 -52.36679077 11.81967163 C-43.07613666 8.33614405 -33.71392281 5.15557987 -24.21972656 2.2668457 C-23.12893799 1.92790283 -22.03814941 1.58895996 -20.91430664 1.23974609 C-5.81614096 -3.18875214 -5.81614096 -3.18875214 0 0 Z " fill="#CAF2F2" transform="translate(436.9072265625,149.045654296875)"/>
<path d="M0 0 C0.96604156 -0.00708481 1.93208313 -0.01416962 2.92739868 -0.02146912 C4.52254555 -0.01775299 4.52254555 -0.01775299 6.1499176 -0.01396179 C7.26705139 -0.01907272 8.38418518 -0.02418365 9.53517151 -0.02944946 C13.24347732 -0.04339745 16.95159837 -0.04238477 20.65992737 -0.04008484 C23.22821116 -0.04396889 25.79649431 -0.04830295 28.36477661 -0.05307007 C33.75428111 -0.06054349 39.14371347 -0.06037043 44.53321838 -0.05497742 C50.765793 -0.04893674 56.99814192 -0.06124885 63.23067802 -0.08254749 C69.22252842 -0.10227196 75.21426039 -0.10533909 81.20614815 -0.10181236 C83.75751844 -0.10232711 86.30889222 -0.1075935 88.86024284 -0.11762428 C92.42312558 -0.12991188 95.98548128 -0.12324287 99.5483551 -0.11161804 C100.60976212 -0.11926178 101.67116913 -0.12690552 102.76473999 -0.13478088 C104.21803207 -0.12425941 104.21803207 -0.12425941 105.70068359 -0.11352539 C106.96471339 -0.113777 106.96471339 -0.113777 108.25427914 -0.1140337 C110.90723305 0.34631204 111.79067504 1.15112262 113.41383362 3.26069641 C113.80201721 5.20600891 113.80201721 5.20600891 113.81227112 7.38569641 C113.81613831 8.17460266 113.82000549 8.96350891 113.82398987 9.77632141 C113.81238831 10.59616516 113.80078674 11.41600891 113.78883362 12.26069641 C113.80043518 13.08054016 113.81203674 13.90038391 113.82398987 14.74507141 C113.82012268 15.53397766 113.81625549 16.32288391 113.81227112 17.13569641 C113.80888733 17.85499329 113.80550354 18.57429016 113.80201721 19.31538391 C113.29148038 21.87384773 112.44636659 22.6482235 110.41383362 24.26069641 C108.27268982 24.63821983 108.27268982 24.63821983 105.74537659 24.64164734 C104.78637451 24.65010681 103.82737244 24.65856628 102.83930969 24.6672821 C101.78882446 24.66120941 100.73833923 24.65513672 99.65602112 24.64888 C97.99473175 24.65676544 97.99473175 24.65676544 96.29988098 24.66481018 C92.6293895 24.67804215 88.95932971 24.66926047 85.28883362 24.65913391 C82.74439917 24.66115372 80.19996529 24.66406437 77.65553284 24.66783142 C72.31904564 24.67225913 66.98271398 24.66609431 61.64625549 24.65180969 C55.47556262 24.6354828 49.3051671 24.64077124 43.13448143 24.65728891 C37.19976192 24.67253944 31.26513487 24.67093012 25.33039856 24.66214371 C22.80415302 24.66013834 20.27789993 24.66261271 17.75166321 24.66958237 C14.22478451 24.67717662 10.69848177 24.6656204 7.17164612 24.64888 C6.12116089 24.6549527 5.07067566 24.66102539 3.98835754 24.6672821 C3.02935547 24.65882263 2.07035339 24.65036316 1.08229065 24.64164734 C0.24827728 24.64051626 -0.58573608 24.63938519 -1.44502258 24.63821983 C-4.08520553 24.17270654 -4.97196043 23.36383484 -6.58616638 21.26069641 C-6.95848083 19.2077179 -6.95848083 19.2077179 -6.94944763 16.88179016 C-6.9488031 16.043255 -6.94815857 15.20471985 -6.94749451 14.34077454 C-6.93138123 13.46872375 -6.91526794 12.59667297 -6.89866638 11.69819641 C-6.90188904 10.82227844 -6.90511169 9.94636047 -6.90843201 9.04389954 C-6.8575161 3.03119407 -6.81512799 0.01660977 0 0 Z " fill="#FEFEFE" transform="translate(176.58616638183594,232.7393035888672)"/>
<path d="M0 0 C4.35030164 2.93172502 7.80285886 6.01889355 9.6484375 11.04296875 C10.70963874 16.69937161 9.16381386 20.80928424 6.421875 25.76171875 C4.25488989 28.80972559 2.18435531 30.24434147 -1.125 31.9375 C-0.51914063 32.08445313 0.08671875 32.23140625 0.7109375 32.3828125 C11.6031484 35.29857357 19.33161462 40.6355619 26.875 48.9375 C23.20328182 57.18086729 15.1437316 61.57999526 7.0703125 64.83203125 C2.13044267 66.34687631 -2.79884793 66.51953846 -7.9375 66.5625 C-8.80850342 66.57337646 -9.67950684 66.58425293 -10.5769043 66.59545898 C-21.50116734 66.35551368 -31.50938849 60.69735455 -39.1875 53.0625 C-40.1465625 52.010625 -40.1465625 52.010625 -41.125 50.9375 C-39.752717 45.27683262 -35.72343163 42.13183037 -31.125 38.9375 C-25.71713811 36.05631494 -20.16114719 33.19747247 -14.125 31.9375 C-15.48625 30.9165625 -15.48625 30.9165625 -16.875 29.875 C-20.88584248 26.48194131 -23.53393443 23.0033074 -24.54296875 17.76953125 C-24.87172523 12.60716594 -23.72481881 8.88277246 -20.73828125 4.66796875 C-15.08485223 -1.39612097 -7.71840399 -2.62425736 0 0 Z " fill="#64799E" transform="translate(237.125,143.0625)"/>
<path d="M0 0 C4.70315234 2.63516142 8.33576456 5.79822285 9.85546875 11.1171875 C10.15228359 14.72843467 10.29298837 18.28657434 10.2890625 21.91015625 C10.50630829 25.30398177 10.50630829 25.30398177 13.34936523 26.93505859 C15.85546875 29.1171875 15.85546875 29.1171875 16.50244141 31.97045898 C16.50808105 33.04884033 16.5137207 34.12722168 16.51953125 35.23828125 C16.52919922 37.01235352 16.52919922 37.01235352 16.5390625 38.82226562 C16.51972656 40.05396484 16.50039062 41.28566406 16.48046875 42.5546875 C16.49980469 43.78251953 16.51914063 45.01035156 16.5390625 46.27539062 C16.53261719 47.45939453 16.52617187 48.64339844 16.51953125 49.86328125 C16.51107178 51.48254517 16.51107178 51.48254517 16.50244141 53.13452148 C15.61455078 57.22786478 14.22881902 58.665183 10.85546875 61.1171875 C7.98350949 61.61706875 5.71514215 61.82110373 2.8515625 61.78125 C2.09126236 61.78603363 1.33096222 61.79081726 0.54762268 61.79574585 C-1.05347778 61.7991366 -2.65464824 61.78999171 -4.25561523 61.76904297 C-6.70388056 61.74222202 -9.14757815 61.76883102 -11.59570312 61.80078125 C-13.15495801 61.79747772 -14.71421006 61.79107265 -16.2734375 61.78125 C-17.00268936 61.79137115 -17.73194122 61.80149231 -18.48329163 61.81192017 C-22.10774495 61.72843999 -23.84371227 61.38031076 -26.60327148 58.96655273 C-28.38882608 55.66555357 -28.66015616 53.60186342 -28.67578125 49.86328125 C-28.6809375 48.67927734 -28.68609375 47.49527344 -28.69140625 46.27539062 C-28.6759375 45.04755859 -28.66046875 43.81972656 -28.64453125 42.5546875 C-28.66 41.32298828 -28.67546875 40.09128906 -28.69140625 38.82226562 C-28.68625 37.63955078 -28.68109375 36.45683594 -28.67578125 35.23828125 C-28.67126953 34.1598999 -28.66675781 33.08151855 -28.66210938 31.97045898 C-28.02813528 28.47552726 -26.92196672 27.2647727 -24.14453125 25.1171875 C-23.48453125 25.1171875 -22.82453125 25.1171875 -22.14453125 25.1171875 C-22.23154297 23.74046875 -22.23154297 23.74046875 -22.3203125 22.3359375 C-22.7732877 10.01501196 -22.7732877 10.01501196 -18.69140625 4.671875 C-13.48374815 -0.5620844 -7.06235735 -2.90727279 0 0 Z " fill="#F59355" transform="translate(114.14453125,240.8828125)"/>
<path d="M0 0 C3.3283025 2.95008631 4.50250344 5.18133526 5.75 9.4375 C5.75 13.75767968 4.49560149 16.47301524 1.68945312 19.7409668 C-2.85779994 23.7186684 -8.61890918 26.13653561 -14 28.8125 C-15.27014506 29.45842985 -16.53968287 30.10555524 -17.80859375 30.75390625 C-27.02756723 35.4375 -27.02756723 35.4375 -28.25 35.4375 C-28.25 24.2175 -28.25 12.9975 -28.25 1.4375 C-25.424375 0.9425 -22.59875 0.4475 -19.6875 -0.0625 C-18.81150146 -0.21912109 -17.93550293 -0.37574219 -17.03295898 -0.53710938 C-5.28840679 -2.54250327 -5.28840679 -2.54250327 0 0 Z " fill="#CCF3F3" transform="translate(383.25,103.5625)"/>
<path d="M0 0 C0.90878906 0.144375 1.81757812 0.28875 2.75390625 0.4375 C11.93215632 1.79305693 20.72090867 2.23691297 30 2 C29.51600377 4.53361504 29.02344185 6.93147767 28.1875 9.375 C27.94686446 12.74389761 29.31831936 14.38603093 31.0625 17.171875 C32.61718098 20.2035029 32.42978704 22.68449998 32 26 C30.34860695 29.5386994 29.28394771 30.81070153 26 33 C22.07424335 33.80528341 18.48836063 33.70912835 14.84375 31.97265625 C7.07471088 26.57915025 1.85082522 18.25412612 0 9 C-0.2090684 5.94760131 -0.14597165 3.06540461 0 0 Z " fill="#CBF2F2" transform="translate(89,320)"/>
<path d="M0 0 C2.72080062 -0.14457088 5.39938899 -0.12380589 8.12315369 -0.05125427 C9.61501945 -0.04064217 9.61501945 -0.04064217 11.13702393 -0.02981567 C14.31675627 -0.0018046 17.494734 0.06094776 20.67393494 0.12452698 C22.8282064 0.1496011 24.98250544 0.17241581 27.13682556 0.19288635 C32.42062835 0.24804358 37.70340632 0.331736 42.98643494 0.43702698 C40.52828494 2.98130243 38.09132189 5.21406249 35.19346619 7.24171448 C34.48512634 7.74017883 33.7767865 8.23864319 33.04698181 8.75221252 C32.30512634 9.26695129 31.56327087 9.78169006 30.79893494 10.31202698 C30.03516541 10.84287903 29.27139587 11.37373108 28.48448181 11.92066956 C26.9829759 12.96311531 25.48056598 14.00426043 23.97715759 15.04396057 C22.36063956 16.17516635 20.76908026 17.34197822 19.18565369 18.51905823 C14.379803 22.02741459 10.06556015 24.11248533 3.98643494 23.43702698 C0.58129904 22.26306584 -2.19583253 20.71814128 -4.18544006 17.60108948 C-5.13848278 15.11059105 -5.31375509 13.1625835 -5.32606506 10.49952698 C-5.34282288 9.66550354 -5.35958069 8.8314801 -5.37684631 7.97218323 C-4.83400335 4.18395653 -4.17261315 0.90562979 0 0 Z " fill="#CCF3F3" transform="translate(183.01356506347656,292.56297302246094)"/>
<path d="M0 0 C3.89944803 0.72408831 5.61567811 2.54769381 8.29296875 5.42578125 C9.92653196 10.32647088 9.34826569 15.28316601 9.29296875 20.42578125 C2.03296875 20.42578125 -5.22703125 20.42578125 -12.70703125 20.42578125 C-13.12588535 7.72054012 -13.12588535 7.72054012 -8.2890625 1.64453125 C-5.6540623 -0.38539483 -3.21807679 -0.09974463 0 0 Z " fill="#F4EAE4" transform="translate(109.70703125,245.57421875)"/>
<path d="M0 0 C0.93423645 3.01031744 1.04449911 3.86650268 0 7 C-1.35555537 20.84602988 2.01387833 33.59125476 10 45 C10 45.66 10 46.32 10 47 C5.12024575 48.62658475 1.45615322 48.67207072 -3.25 46.5 C-7.43277644 42.69747596 -8.59771792 39.09906198 -9.31640625 33.5625 C-9.86192113 21.73714519 -5.82603129 10.14780041 0 0 Z " fill="#CCF3F3" transform="translate(57,257)"/>
<path d="M0 0 C3.89739452 2.18369786 7.1734664 4.73215656 9.24609375 8.8046875 C10.63944995 14.09229566 10.12589001 19.7012507 9.85546875 25.1171875 C8.20546875 25.1171875 6.55546875 25.1171875 4.85546875 25.1171875 C4.81808594 24.30894531 4.78070313 23.50070312 4.7421875 22.66796875 C4.67644531 21.59933594 4.61070313 20.53070313 4.54296875 19.4296875 C4.48496094 18.37394531 4.42695312 17.31820313 4.3671875 16.23046875 C3.80769828 12.82655345 2.89268532 10.8802532 0.85546875 8.1171875 C-3.15086876 5.44629583 -6.43444553 5.41024877 -11.14453125 6.1171875 C-14.176688 8.31550114 -14.96107523 9.56681944 -16.14453125 13.1171875 C-16.36778939 15.17612371 -16.55158884 17.23952403 -16.70703125 19.3046875 C-16.79082031 20.39136719 -16.87460938 21.47804688 -16.9609375 22.59765625 C-17.02152344 23.42910156 -17.08210938 24.26054687 -17.14453125 25.1171875 C-18.79453125 25.1171875 -20.44453125 25.1171875 -22.14453125 25.1171875 C-23.07413341 10.4088156 -23.07413341 10.4088156 -18.69140625 4.671875 C-13.48374815 -0.5620844 -7.06235735 -2.90727279 0 0 Z " fill="#172647" transform="translate(114.14453125,240.8828125)"/>
<path d="M0 0 C3.375 1 3.375 1 5.375 4 C5.1875 7.0625 5.1875 7.0625 4.375 10 C0.9397952 12.29013653 -0.610331 12.17842973 -4.625 12 C-4.955 12.66 -5.285 13.32 -5.625 14 C-7.625 12 -7.625 12 -8 8.6875 C-7.42359112 3.01947936 -6.01637934 0 0 0 Z " fill="#B7EBEB" transform="translate(398.625,170)"/>
<path d="M0 0 C1.875 1.6875 1.875 1.6875 3 4 C2.75925978 7.37036311 2.41201979 8.58798021 0 11 C-2.9375 11.375 -2.9375 11.375 -6 11 C-8 9.375 -8 9.375 -9 7 C-8.3125 3.8125 -8.3125 3.8125 -7 1 C-4.4254716 -0.2872642 -2.85291355 -0.34791629 0 0 Z " fill="#A8E5E5" transform="translate(32,200)"/>
<path d="M0 0 C2.625 0.375 2.625 0.375 5 1 C5.79953138 4.28696233 6.09658936 5.71023192 5 9 C5.39397335 11.63804589 5.39397335 11.63804589 6 14 C3.36 14 0.72 14 -2 14 C-1.814375 12.948125 -1.62875 11.89625 -1.4375 10.8125 C-0.82006813 7.15225005 -0.82006813 7.15225005 -1.5625 4.1875 C-1.706875 3.465625 -1.85125 2.74375 -2 2 C-1.34 1.34 -0.68 0.68 0 0 Z " fill="#0D1736" transform="translate(106,278)"/>
<path d="M0 0 C2.31 0.33 4.62 0.66 7 1 C7.33 3.31 7.66 5.62 8 8 C7.195625 8.12375 6.39125 8.2475 5.5625 8.375 C4.716875 8.58125 3.87125 8.7875 3 9 C2.67 9.66 2.34 10.32 2 11 C1.34 11 0.68 11 0 11 C0 10.34 0 9.68 0 9 C-0.99 9 -1.98 9 -3 9 C-2.01 6.03 -1.02 3.06 0 0 Z " fill="#71D0D0" transform="translate(206,47)"/>
<path d="M0 0 C1.1446875 0.3403125 1.1446875 0.3403125 2.3125 0.6875 C3 3 3 3 3.3125 5.6875 C1.875 7.5 1.875 7.5 0.3125 8.6875 C-2.125 7.9375 -2.125 7.9375 -4.6875 6.6875 C-5.6875 4.75 -5.6875 4.75 -5.6875 2.6875 C-3.97309355 -0.07459928 -3.26180423 -0.37927956 0 0 Z " fill="#9CE1E1" transform="translate(371.6875,278.3125)"/>
<path d="M0 0 C0 2.64 0 5.28 0 8 C-3.63 8.33 -7.26 8.66 -11 9 C-2.25 0 -2.25 0 0 0 Z " fill="#CEF3F3" transform="translate(105,212)"/>
<path d="M0 0 C5.53846154 -0.36923077 5.53846154 -0.36923077 7.875 1.5 C8.24625 1.995 8.6175 2.49 9 3 C8.21625 3.28875 7.4325 3.5775 6.625 3.875 C3.90328368 4.84912254 3.90328368 4.84912254 2 7 C0.68 6.34 -0.64 5.68 -2 5 C-1.34 3.35 -0.68 1.7 0 0 Z " fill="#78D3D3" transform="translate(100,323)"/>
<path d="M0 0 C0.66 0 1.32 0 2 0 C2 0.66 2 1.32 2 2 C2.99 1.67 3.98 1.34 5 1 C7.1875 1.9375 7.1875 1.9375 9 3 C8.195625 3.12375 7.39125 3.2475 6.5625 3.375 C5.2940625 3.684375 5.2940625 3.684375 4 4 C3.67 4.66 3.34 5.32 3 6 C2.34 6 1.68 6 1 6 C1 5.34 1 4.68 1 4 C0.01 4 -0.98 4 -2 4 C-1.34 2.68 -0.68 1.36 0 0 Z " fill="#68CDCD" transform="translate(205,52)"/>
<path d="M0 0 C-1 2 -2 4 -3 6 C-3.0689472 7.37342831 -3.08467708 8.75002102 -3.0625 10.125 C-3.041875 11.40375 -3.02125 12.6825 -3 14 C-3.66 13.67 -4.32 13.34 -5 13 C-5.46882399 4.87371744 -5.46882399 4.87371744 -3.625 1.4375 C-2 0 -2 0 0 0 Z " fill="#8EDBDB" transform="translate(280,31)"/>
<path d="M0 0 C-0.78375 0.61875 -1.5675 1.2375 -2.375 1.875 C-5.52292704 4.42332189 -7.30185524 6.36111837 -9 10 C-8.39779006 3.61657459 -8.39779006 3.61657459 -6.75 1.0625 C-4.41628148 -0.35440053 -2.67863922 -0.21718696 0 0 Z " fill="#81D6D6" transform="translate(400,170)"/>
<path d="M0 0 C1.98 0.99 1.98 0.99 4 2 C3.67 3.65 3.34 5.3 3 7 C2.34 7 1.68 7 1 7 C0.67 4.69 0.34 2.38 0 0 Z " fill="#97DFDF" transform="translate(206,47)"/>
</svg>
