<?xml version="1.0" encoding="UTF-8"?>
<svg width="163px" height="200px" viewBox="0 0 163 200" version="1.1" xmlns="http://www.w3.org/2000/svg" xmlns:xlink="http://www.w3.org/1999/xlink">
    <title>Group 104</title>
    <defs>
        <polygon id="path-1" points="2.95552343e-15 0 118.116989 0 118.116989 86.3137388 2.95552343e-15 86.3137388"></polygon>
        <polygon id="path-3" points="0 0 96.5766671 0 96.5766671 81.0173012 0 81.0173012"></polygon>
        <polygon id="path-5" points="0 200 163 200 163 0 0 0"></polygon>
        <polygon id="path-7" points="0 0 19.114652 0 19.114652 26.2722082 0 26.2722082"></polygon>
        <polygon id="path-9" points="0 0 12.4376785 0 12.4376785 15.3062515 0 15.3062515"></polygon>
        <polygon id="path-11" points="0 0 15.7561849 0 15.7561849 24.4695174 0 24.4695174"></polygon>
        <polygon id="path-13" points="0 0 22.408144 0 22.408144 13.7004815 0 13.7004815"></polygon>
        <polygon id="path-15" points="0 0 8.97299793 0 8.97299793 8.24019787 0 8.24019787"></polygon>
        <polygon id="path-17" points="0 0 4.43253898 0 4.43253898 5.88394682 0 5.88394682"></polygon>
        <polygon id="path-19" points="0 0 37 0 37 62 0 62"></polygon>
        <polygon id="path-21" points="0 0 35.5165748 0 35.5165748 57 0 57"></polygon>
        <polygon id="path-23" points="0.242648166 0 0.298252784 0 0.298252784 12.7703581 0.242648166 12.7703581"></polygon>
        <polygon id="path-25" points="0 0 1.14677363 0 1.14677363 6.24646539 0 6.24646539"></polygon>
        <polygon id="path-27" points="0 0 2.28279011 0 2.28279011 6.24646539 0 6.24646539"></polygon>
        <polygon id="path-29" points="0 0 3.41880659 0 3.41880659 6.24646539 0 6.24646539"></polygon>
        <polygon id="path-31" points="0 0 29.2738682 0 29.2738682 10.1178716 0 10.1178716"></polygon>
        <polygon id="path-33" points="0 200 163 200 163 0 0 0"></polygon>
    </defs>
    <g id="🟢-Login" stroke="none" stroke-width="1" fill="none" fill-rule="evenodd">
        <g id="C1.1" transform="translate(-106, -244)">
            <g id="Group-104" transform="translate(106, 244)">
                <g id="Group-13">
                    <g id="Group-3" transform="translate(7.282, 0)">
                        <mask id="mask-2" fill="white">
                            <use xlink:href="#path-1"></use>
                        </mask>
                        <g id="Clip-2"></g>
                        <path d="M116.80751,3.1431916 C115.989434,1.89688709 114.577066,0.974513779 113.212012,0.437016407 C111.681409,-0.165474853 109.812845,-0.00112130029 108.206747,0.0972001236 C107.022113,0.16977317 105.844758,0.337968214 104.683937,0.583512214 C102.049915,1.14073616 99.4713188,1.99375498 97.0079415,3.07560211 C92.6302447,4.99821682 88.5300926,7.53297843 84.4470985,10.0026423 C76.1408302,15.0270021 68.0107179,20.3261842 60.1360008,26.0031822 C52.5728324,31.4556087 45.2231518,37.2035186 38.1131642,43.2333109 C34.1498606,46.5944086 30.256853,50.0409534 26.4283181,53.5542572 C23.0855122,56.6219479 19.7769185,59.7237967 16.6727657,63.0335014 C15.724497,64.0445405 14.7896428,65.0675194 13.8539566,66.090083 C14.0770114,65.8465116 14.3000661,65.6028365 14.5231209,65.3592651 C13.2060059,66.7781253 11.8816117,68.1900293 10.5836306,69.6264357 C9.38599806,70.9517503 8.29952897,72.3785011 7.18467109,73.7736894 C6.79710694,74.2587556 6.41536612,74.7483901 6.03840877,75.2417622 C5.53645755,75.8984496 5.04074563,76.5603283 4.51903665,77.2017536 C4.15684563,77.6470552 3.93451878,78.1863175 3.66279752,78.6914218 C3.207745,79.5373806 2.41181904,80.3000724 1.79579273,81.0543545 C1.34885129,81.6017152 0.9050295,82.1517753 0.463495451,82.7034965 C-0.271181436,83.6217169 -0.126845765,85.1629857 0.856466994,85.8589186 C1.93316119,86.6208837 3.14701587,86.3818806 4.01677347,85.4665673 C4.2446117,85.2268375 4.47161802,84.9861732 4.70060011,84.7475854 C4.70486363,84.7432248 4.70829524,84.739591 4.71235078,84.7353342 C4.72233365,84.7264053 4.73980368,84.7100011 4.76819247,84.6824877 C4.88611512,84.5686965 4.99800647,84.4481567 5.11291347,84.3312508 C5.71313357,83.7203498 6.31439355,83.1105908 6.9167974,82.501974 C7.01995373,82.3977346 7.12810149,82.2966099 7.2287621,82.1898787 C7.25954262,82.1705674 7.3198558,82.1285187 7.4135492,82.061033 C7.89803039,81.7407356 8.39935768,81.4391266 8.83642023,81.0580922 C9.36811208,80.5946214 9.87245503,80.0952275 10.3871968,79.6131722 C12.5314342,77.605214 14.7471116,75.6862332 16.8568249,73.6416252 C20.1672904,70.5264868 23.5333896,67.4707359 26.8323124,64.3440731 C29.5960077,61.7247986 32.4029622,59.1515183 35.2470404,56.6196638 C41.7110532,50.9309336 48.3724356,45.4665673 55.2187091,40.2423462 C62.2072385,34.9095251 69.3904338,29.835226 76.7205646,24.9817607 C80.8227965,22.2655146 84.9803502,19.6330545 89.1878182,17.0825116 C89.2428279,17.0490802 89.2979417,17.0157527 89.3529515,16.9824252 C89.0243487,17.1813522 88.6956419,17.380383 88.367039,17.5793099 C93.5830889,14.4229534 98.8825374,11.0798174 104.767128,9.31626119 C106.19447,8.95235772 107.643754,8.69861161 109.109988,8.58430128 C109.052483,8.70494488 108.993002,8.82455025 108.931857,8.94342884 C108.85189,9.07694664 108.770779,9.20973766 108.687692,9.3412828 C108.60107,9.47833061 108.511952,9.61350959 108.423666,9.74941534 C108.180438,10.1243242 107.982236,10.3957204 107.774883,10.8789177 C107.631692,11.2124008 107.458239,11.8319192 107.306,12.3918425 C106.487717,13.5194761 105.614008,14.6043341 104.725324,15.678083 C104.686329,15.7240771 104.647437,15.770175 104.608546,15.8162729 L103.695529,16.8719563 L103.361623,17.2492531 C103.552129,17.0366214 103.742636,16.8239896 103.933142,16.6114617 C101.981387,18.7887569 100.094104,21.0299039 98.1001299,23.1687842 C96.597188,24.7809649 95.2275589,26.5353846 93.9904109,28.3625849 C93.7051711,28.7839031 93.4390652,29.1958771 93.4364655,29.7220577 C93.4301222,31.0265037 94.8559049,31.8672713 95.9966559,31.2319716 C96.1826908,31.1283551 96.3453285,30.8736746 96.525748,30.7974677 C96.5139974,30.8217626 96.5021427,30.8459536 96.490392,30.8702484 C96.4324706,30.9586027 96.4432854,30.9674278 96.5228364,30.8965159 C96.5947962,30.8889368 96.7520264,30.7431677 96.8039166,30.7098402 C97.0020142,30.5826557 97.2035434,30.46087 97.401329,30.3330625 C97.9310451,29.9905468 98.4475546,29.6272663 98.9687437,29.2719802 C99.2206032,29.1002551 99.478286,28.9373551 99.7335771,28.7708213 C99.8716735,28.680702 100.010394,28.5911018 100.147242,28.4990098 C100.198924,28.4642287 100.251231,28.4306935 100.301665,28.3941474 C100.652625,28.1402975 100.815471,27.9755287 100.824726,27.9497803 C101.090624,27.732165 101.398949,27.531473 101.657463,27.3245515 C101.916498,27.1172148 102.175013,26.9091513 102.432904,26.7002572 C102.935479,26.2931629 103.435558,25.8830577 103.932518,25.4692149 C105.197535,24.4160232 106.488341,23.3833887 107.692733,22.2619845 C109.584591,20.500401 111.556312,18.6780804 113.186015,16.6507072 C113.469071,16.4695341 113.741208,16.2775634 113.981837,16.111341 C114.414844,15.8121199 114.848163,15.4149927 115.167095,14.9989695 C115.362593,14.7439776 115.526998,14.4553466 115.695251,14.1818739 C116.169958,13.4108761 116.620643,12.6185944 117.015694,11.8037828 C117.553209,10.6954606 117.965523,9.43804686 118.07939,8.21292247 C118.252322,6.35384811 117.828778,4.69889194 116.80751,3.1431916" id="Fill-1" fill="#CCF3F3" mask="url(#mask-2)"></path>
                    </g>
                    <path d="M97.4243425,43.9982661 C97.2160541,43.3691959 96.8936905,42.8745779 96.3976666,42.4337408 C95.8528723,41.949609 95.0463395,41.4833349 94.2889932,41.4979741 C93.8368523,41.5066954 93.3969821,41.5053456 92.9527444,41.5188428 C91.7589594,41.4379638 90.5857641,41.4259202 89.4077854,41.7249336 C89.039667,41.8184791 88.6721726,41.9144126 88.3053021,42.0129417 C87.5583546,42.2135298 86.8243017,42.4303146 86.0960721,42.6909131 C84.858716,43.133619 83.6139768,43.5640737 82.4054256,44.0805986 C79.811959,45.1890248 77.2508327,46.3653518 74.6988574,47.5655584 C75.08247,47.385216 75.4660826,47.2047697 75.8496952,47.0243234 C72.9498793,48.3652117 69.9766476,49.6378875 67.1606462,51.1532002 C64.2268261,52.7317419 61.3451041,54.426255 58.5132965,56.1808823 C58.8253652,55.9875619 59.1374339,55.7942414 59.4495025,55.6009209 C57.0647403,57.0231035 54.7016077,58.452969 52.374247,59.9668282 C52.6379611,59.7955184 52.9017793,59.6242087 53.1654934,59.4527951 C52.0160075,60.1800829 50.8527951,60.8887862 49.7245227,61.6490901 C48.6319183,62.3854106 47.5583438,63.1490369 46.4648035,63.8841115 C45.78836,64.3388611 45.1188838,64.8038893 44.4554388,65.2773272 C44.1009429,65.5302427 43.7482148,65.78565 43.3970465,66.0431337 C42.9210924,66.3920865 42.4065586,66.6933841 41.9742795,67.0945604 C41.8219367,67.2359688 41.6712578,67.3790384 41.5209948,67.522731 C40.8955055,68.0707146 40.1918171,68.527333 39.5183893,69.0146833 C38.6602784,69.6358629 37.7953043,70.2475945 36.9365694,70.8679435 C35.7694054,71.7109952 34.5530551,72.5343204 33.4785446,73.4934474 C32.5069825,74.3606901 31.4755232,75.1291961 30.4426081,75.9230352 C29.1565855,76.9114406 27.8919846,77.9261136 26.6187527,78.9307156 C26.1085864,79.3332416 26.1797143,80.1922822 26.535874,80.6468242 C26.9203185,81.1377045 27.6728814,81.3319594 28.224435,80.9764657 C29.3268143,80.2661012 30.4329372,79.5616546 31.5425956,78.8628146 C32.7722565,78.0883906 33.988191,77.2849998 35.2996906,76.6563448 C36.5595081,76.0524 37.7387347,75.2904349 38.9561249,74.6054035 C40.2943495,73.8523673 41.6359018,73.1055606 42.9797418,72.3628029 C43.1406116,72.2739295 43.3014814,72.1850561 43.4624551,72.0962865 C43.5315033,72.058183 43.6005515,72.0200796 43.6695997,71.9819761 C43.7344884,71.9462606 44.029087,71.7486834 43.7508145,71.9368127 C43.498851,72.1070842 43.7095312,71.9736702 43.7924098,71.9420039 C44.0755698,71.8338191 44.3580018,71.7235579 44.63981,71.6120509 C44.9175625,71.5019973 45.186996,71.3946432 45.4519581,71.2580107 C46.1446237,70.9010634 46.8391611,70.5475424 47.5323467,70.1916333 C51.4493756,68.310133 55.3769073,66.4554192 59.3095344,64.6062082 C61.4132164,63.693802 63.5162745,62.7801499 65.615485,61.8578804 C67.6140349,61.0697516 69.6316147,60.3009342 71.5923128,59.4300576 C73.1060696,58.7575889 74.6251297,58.0975791 76.1468936,57.4437987 C78.9488566,56.3023565 81.7639221,55.1932037 84.5914663,54.1168592 C85.9597435,53.5960775 87.325525,53.0813176 88.6763321,52.5172413 C89.2748884,52.2673367 89.8784362,52.0281259 90.4738728,51.7711613 C91.3589167,51.3894001 92.2052769,50.9073448 93.0764904,50.4889336 C93.2058517,50.426743 93.335941,50.365383 93.4638465,50.3003891 C94.2415746,49.9057537 94.7785698,49.3684639 95.280417,48.7476996 C95.6599741,48.4806641 96.0273645,48.1971204 96.3810285,47.8952 C96.8373289,47.5397062 97.2350839,46.904718 97.4281901,46.3661824 C97.7059426,45.5917584 97.6797376,44.7696792 97.4243425,43.9982661" id="Fill-4" fill="#CCF3F3"></path>
                    <path d="M120.958066,133.796136 C121.233323,133.646941 121.510243,133.500653 121.786124,133.3526 C121.900823,133.291032 122.014898,133.228426 122.129805,133.166962 L120.958066,133.796136 Z" id="Fill-6" fill="#CCF3F3"></path>
                    <g id="Group-10" transform="translate(66.4233, 118.9827)">
                        <mask id="mask-4" fill="white">
                            <use xlink:href="#path-3"></use>
                        </mask>
                        <g id="Clip-9"></g>
                        <path d="M96.1038846,2.38487098 C95.7036339,1.69423306 95.1605033,1.11043014 94.500178,0.660975606 C93.634268,0.0715661831 92.2157645,-0.153005348 91.2052068,0.10717785 C81.1777252,2.68855648 71.4322597,6.3623723 62.1307199,10.8990702 C59.8517138,12.0107149 57.5971448,13.1713645 55.3628536,14.3699099 C51.4094288,16.4922822 47.5488656,18.7435002 43.7544388,21.1392413 C41.0177804,22.8671858 38.3159581,24.6495342 35.6438764,26.475281 C30.2682045,30.1481624 25.0148228,33.9966104 19.8341289,37.9381886 C18.3815172,39.0433961 16.9345209,40.1559752 15.4917882,41.2741607 C14.0771322,42.3707509 12.7169661,43.537007 11.3569039,44.7018096 C9.99029054,45.8420059 8.61681392,46.9735848 7.24905665,48.1125352 C6.85858082,48.4377123 6.46852095,48.7636161 6.07918899,49.0902467 C5.88421105,49.2537697 5.68944109,49.4173965 5.49477511,49.5812309 C5.04876956,49.9564512 4.6974973,50.3076881 4.31128499,50.7146786 C4.44407797,50.573374 4.57687095,50.4319656 4.70955994,50.2905572 C4.46799527,50.5229155 4.2272625,50.7562083 3.98673771,50.9897087 C3.10398158,51.8047279 2.21633799,52.6111297 1.33067019,53.4223074 C0.50177996,54.1814692 0.0050281566,55.4816584 0,56.5890463 C-0.00485072582,57.6895817 0.478382607,59.0089784 1.30196944,59.767725 C2.1570647,60.5553346 3.27681002,61.1418369 4.47371462,61.0961543 C5.57120646,61.0543132 6.48453514,60.7027648 7.33401504,60.0577057 L7.34898934,60.0921753 C8.38814378,59.4041329 9.41897917,58.7038394 10.4445112,57.9958628 C11.4072342,57.4405077 12.2986214,56.6667067 13.1785698,56.0033745 C14.2212599,55.2173222 15.28142,54.4549419 16.3374205,53.6868512 C17.800639,52.6223427 19.2608418,51.5534735 20.7294676,50.4967518 C22.0591652,49.5400127 23.3297975,48.4890014 24.6324581,47.4953009 C25.9602839,46.4822891 27.2923732,45.4748839 28.6296619,44.474331 C33.9448126,40.4976603 39.3430499,36.6292781 44.8733523,32.9556699 C47.7581939,31.0392847 50.6796394,29.1779262 53.6403925,27.3804195 C57.4253563,25.1064641 61.2241505,22.8685356 65.1060314,20.7709772 C63.6729695,21.8895781 62.2257652,22.9905289 60.7787689,24.0894032 C54.4684508,28.7313787 48.2389315,33.4900526 42.2298673,38.5166964 C40.5673034,39.9075241 38.9215856,41.3184936 37.2946896,42.7507471 C37.5722342,42.5095637 37.8497788,42.2683803 38.1273234,42.0273008 C30.4456084,48.6656062 23.1497938,55.7574152 16.6817255,63.5923972 C15.0095947,65.6179016 13.3025238,67.6318815 12.4000099,70.1449439 C11.8540717,71.6649287 11.630601,73.5489208 12.0784783,75.1266319 C12.4355739,76.3843571 12.9440764,77.3226155 13.7736945,78.3399878 C14.0530069,78.6825035 14.4110384,78.9389491 14.7535757,79.2144982 C15.1436355,79.5283585 15.4691187,79.8023503 15.9139804,80.0131132 C17.1692224,80.60761 17.9978007,80.8234603 19.3721092,80.9802347 C20.266408,81.0823976 21.159355,80.9561475 22.0453348,80.8105861 C23.3938542,80.5891293 24.7257355,79.9836272 25.8346661,79.192176 C27.0402017,78.3318895 28.0800841,77.4096201 29.0870021,76.3326527 C29.804313,75.5654964 30.5284871,74.8052963 31.2656597,74.0572436 C34.4585145,70.8174126 37.8559141,67.7826341 41.4166793,64.9514547 C43.5535336,63.3009629 45.7455016,61.7224213 47.9910236,60.2224745 C50.4312115,58.5924361 52.8448824,56.9381029 55.3246899,55.3693207 C55.3575502,55.3491789 55.3904105,55.329037 55.4232708,55.3088951 C56.0806844,54.9175821 56.737994,54.526269 57.3954076,54.1350598 L57.4992919,54.0751533 C59.1011267,53.1693918 60.7108646,52.2803461 62.3480554,51.4386441 C63.0805485,51.0621779 63.8383108,50.7220501 64.5569735,50.3210815 C65.2482873,49.9353749 65.9365854,49.5439581 66.6250915,49.1529565 C68.5616644,48.1405677 70.5164353,47.1651402 72.4737019,46.1932428 C73.5122324,45.713264 74.5922542,45.2923611 75.557473,44.6766842 C75.8740132,44.4747463 76.1951289,44.2768576 76.5068856,44.0669252 C76.733372,43.9096317 76.9604823,43.7533765 77.1880085,43.5976403 C78.4774627,43.1368689 79.2152592,41.4446399 78.6825275,40.1896142 C78.0934341,38.8016936 76.6719149,38.1725195 75.2425966,38.6217664 C74.9995761,38.5440022 74.7537479,38.5190844 74.505112,38.5468054 C74.3701353,38.5545922 74.2351586,38.5633135 74.1001819,38.5729691 C73.37424,38.6245697 72.9613027,38.6747167 72.3430926,38.8009668 C71.9351468,38.8843376 71.5313605,38.974976 71.1263263,39.0790078 C70.341735,39.2805304 69.5608874,39.4958615 68.7827434,39.7207445 C66.3985011,40.349711 64.048471,41.074507 61.7295333,41.9157937 C61.2490037,42.0766172 60.7727376,42.2457467 60.3033347,42.439171 C59.6576717,42.6991465 59.0218876,42.9892311 58.3874554,43.272567 C52.3375238,45.9375241 46.4024993,48.9765593 40.9911594,52.7820241 C38.1495769,54.7803266 35.3793303,56.8946006 32.7072486,59.1240155 C33.0818142,58.7095497 33.4576277,58.296226 33.8359369,57.885394 C35.2098295,56.3934417 36.6135667,54.9305601 38.0281186,53.4773341 L39.4448544,52.0568128 C44.892902,46.7339588 50.5582851,41.6494849 56.358021,36.7111953 C58.0452301,35.2745812 59.743462,33.8509452 61.4453335,32.4315659 C64.6948619,29.762975 68.0143743,27.191252 71.3523967,24.6349988 C73.5187836,23.0664243 75.7795919,21.6201546 77.9756154,20.0926944 C77.687568,20.2826925 77.3994166,20.4726906 77.1112652,20.6626887 C79.163577,19.3119371 81.2074658,17.949142 83.2341965,16.5605985 C84.61828,15.6123729 85.9518251,14.6017491 87.2925454,13.5938248 C89.9220959,11.6170139 92.53792,9.62016495 95.1867084,7.66910244 C95.4385679,7.36365193 95.6904274,7.05820143 95.9422869,6.75275092 C96.2716176,6.26052086 96.4597323,5.72572291 96.506839,5.14835708 C96.6583499,4.23678148 96.5805667,3.20746934 96.1038846,2.38487098" id="Fill-8" fill="#CCF3F3" mask="url(#mask-4)"></path>
                    </g>
                    <mask id="mask-6" fill="white">
                        <use xlink:href="#path-5"></use>
                    </mask>
                    <g id="Clip-12"></g>
                    <polygon id="Fill-11" fill="#FFFFFF" mask="url(#mask-6)" points="53.1011767 133.102498 114.870189 133.102498 114.870189 61.2562197 53.1011767 61.2562197"></polygon>
                </g>
                <g id="Group-41" transform="translate(121, 29)">
                    <g id="Group-16" transform="translate(0, 22.1256)">
                        <mask id="mask-8" fill="white">
                            <use xlink:href="#path-7"></use>
                        </mask>
                        <g id="Clip-15"></g>
                        <path d="M11.6889647,2.71452645 C8.85502358,1.40090434 6.17521178,1.79190413 3.61122864,3.33813059 C2.96588284,3.72725957 2.35111581,4.17126572 1.73696653,4.61153024 C0.419299737,5.55618657 -1.00667972,6.23996851 -2.6088217,6.51310712 C-2.77932148,6.54220865 -2.95455737,6.56684101 -3.12691041,6.55956563 C-3.58837178,6.54002603 -3.9592294,6.18010251 -4.0194603,5.71551743 C-4.08123558,5.2382524 -3.79120063,4.74560513 -3.32284102,4.68459586 C-1.53640278,4.45178365 -0.0587379987,3.5703192 1.36034322,2.51757148 C2.77221733,1.4701244 4.31454024,0.682304505 6.02828956,0.251913717 C11.0768746,-1.01587349 17.8060562,2.5710975 18.9672257,9.4438387 C19.4164349,12.1027828 18.8200975,14.4214469 17.4373608,16.5949152 C16.7979866,17.6000611 16.2323309,18.655719 15.6105627,19.673337 C14.9610985,20.7359585 14.8525799,21.8785052 15.1709286,23.0806061 C15.3244401,23.6603501 15.5308725,24.2281416 15.7414233,24.7906326 C15.9811114,25.4313858 15.829556,25.974649 15.3155857,26.1923907 C14.7911135,26.4146017 14.2897041,26.1665112 14.0322042,25.5271091 C13.8357588,25.0393467 13.6593903,24.5421263 13.4969213,24.0417879 C12.7892855,21.8633308 13.1645703,19.8772556 14.3565244,18.0164208 C14.9908536,17.0261375 15.5354027,15.9733897 16.1697319,14.9830024 C17.5259053,12.8652428 17.5109763,10.6042621 16.7438302,8.26366787 C15.879594,5.62675777 14.1243523,3.83649423 11.6889647,2.71452645" id="Fill-14" fill="#FBD1B6" mask="url(#mask-8)"></path>
                    </g>
                    <g id="Group-19" transform="translate(0, 28.9666)">
                        <mask id="mask-10" fill="white">
                            <use xlink:href="#path-9"></use>
                        </mask>
                        <g id="Clip-18"></g>
                        <path d="M12.0604916,6.7742832 C11.3907445,8.28932945 10.2668462,9.29083769 9.00786592,10.1577514 C7.27218637,11.3530966 5.36868397,12.2063949 3.41617318,12.9531609 C0.89491794,13.9172529 -1.68934809,14.676283 -4.32241659,15.2649653 C-4.60277342,15.3276375 -4.94130197,15.3238959 -5.20652385,15.2194422 C-5.57171874,15.0755975 -5.75900081,14.7171291 -5.71596402,14.3027441 C-5.66798522,13.8412771 -5.411103,13.5535877 -4.96364403,13.4383249 C-3.56124214,13.0767384 -2.15111833,12.7397843 -0.76302771,12.3288292 C1.90854738,11.5378913 4.52411289,10.5916759 6.95023419,9.18461712 C8.1476451,8.49012998 9.30593167,7.72538344 10.069886,6.50374294 C10.6802258,5.5275946 10.7495171,4.45166959 10.3193552,3.36431184 C9.89763592,2.29815664 8.74109966,1.6898308 7.6045374,1.98687424 C7.06112082,2.12895205 6.47137278,2.37059865 6.07673168,2.75650568 C3.46240168,5.31338657 0.319790051,6.74185578 -3.20047448,7.42158429 C-4.25302235,7.62477531 -5.29496547,7.88107661 -6.34668967,8.08894465 C-6.89576898,8.19745177 -7.36206941,7.86101734 -7.46760219,7.33376004 C-7.57148762,6.81440173 -7.29576394,6.37309787 -6.7685119,6.22125026 C-6.65741934,6.18923858 -6.54262028,6.16959505 -6.42946855,6.14433909 C-5.10057924,5.84760745 -3.77282248,5.54536731 -2.44238879,5.25518352 C0.28540181,4.66026517 2.64727682,3.37085969 4.67072623,1.4188748 C5.58448563,0.537306422 6.67554009,0.0370719705 7.95078786,0.00173440277 C10.1347501,-0.0587551985 11.9579446,1.4686592 12.3479525,3.69606924 C12.5363672,4.77178638 12.4221858,5.81809019 12.0604916,6.7742832" id="Fill-17" fill="#FBD1B6" mask="url(#mask-10)"></path>
                    </g>
                    <g id="Group-22" transform="translate(0, 25.5188)">
                        <mask id="mask-12" fill="white">
                            <use xlink:href="#path-11"></use>
                        </mask>
                        <g id="Clip-21"></g>
                        <path d="M10.3549481,15.1200949 C10.8291763,14.3603372 11.5581247,13.187026 12.2927357,12.0174565 C12.9842071,10.9164833 13.6434523,9.80366176 13.8578125,8.4682135 C14.3157733,5.61512064 11.7217262,1.25373724 7.25393178,2.00320548 C5.82805528,2.2424616 4.55043945,2.86876802 3.53011769,3.8758887 C1.43850955,5.94053807 -1.15872929,6.82137891 -3.91730457,7.38688393 C-4.15853706,7.43635653 -4.40079913,7.4833347 -4.64470854,7.5172172 C-5.26740339,7.60358637 -5.73421862,7.28825054 -5.82852889,6.72659108 C-5.92355986,6.16046246 -5.58101592,5.7591732 -4.96686664,5.61085935 C-3.72940475,5.31204903 -2.48607421,5.02446359 -1.27249877,4.64468867 C-0.0593351598,4.26491375 0.9977429,3.59038194 1.94671421,2.70559161 C3.66808249,1.10064243 5.65765845,0.0520520703 8.05783413,0.00154013515 C12.7058065,-0.0963657144 16.5013828,4.48972304 15.631175,9.15407412 C15.3515389,10.6529067 14.6024106,11.9241237 13.806745,13.1700848 C13.2525177,14.0380378 12.6780076,14.8949738 12.1781426,15.7966015 C11.4637114,17.0854873 11.2480127,18.5120857 11.3756817,19.9965753 C11.4544451,20.9112987 11.8258176,21.7059782 12.4628237,22.3659592 C12.6076867,22.5161439 12.7567711,22.6620673 12.8981335,22.8155778 C13.2855675,23.2361988 13.3051297,23.8082517 12.9487892,24.1907289 C12.6110844,24.5531468 12.062108,24.568529 11.6493462,24.1997711 C10.3818203,23.067306 9.61590974,21.6645085 9.49802191,19.9336952 C9.39526902,18.4256126 9.64257607,16.9793706 10.3549481,15.1200949" id="Fill-20" fill="#FBD1B6" mask="url(#mask-12)"></path>
                    </g>
                    <g id="Group-25" transform="translate(0, 18.6934)">
                        <mask id="mask-14" fill="white">
                            <use xlink:href="#path-13"></use>
                        </mask>
                        <g id="Clip-24"></g>
                        <path d="M14.6655141,1.72134876 C17.3212335,2.92448901 19.746943,5.69692907 21.3155204,9.30686948 C21.738784,10.2810431 22.036232,11.3150827 22.3428434,12.3363384 C22.5473195,13.0171062 22.2546077,13.5539255 21.7018218,13.6762558 C21.1430644,13.7998334 20.714241,13.4450026 20.5330335,12.7404339 C19.6674588,9.37390693 18.1053678,6.40866925 15.2722503,4.39744198 C11.2073337,1.5116099 6.93289593,0.996201081 2.57135499,3.47429999 C1.61404402,4.01818673 0.700078696,4.6418948 -0.228403815,5.23785249 C-0.699440352,5.54009263 -1.23750307,5.46972929 -1.55276293,5.04256046 C-1.8710086,4.61144213 -1.81407238,4.01818673 -1.35837671,3.69172996 C0.743836189,2.18603777 2.92841613,0.837909564 5.48354482,0.269286525 C8.33488599,-0.365334618 11.0806944,0.122947421 14.6655141,1.72134876" id="Fill-23" fill="#FBD1B6" mask="url(#mask-14)"></path>
                    </g>
                    <path d="M14.8764458,16.8918546 C18.4453069,18.5226833 21.2512432,21.037367 23.1792498,24.5684215 C23.2656322,24.7265052 23.3571626,24.8826141 23.4301604,25.0470377 C23.6564639,25.5568341 23.4989369,26.0747373 23.051375,26.3180468 C22.6170947,26.5541849 22.0860332,26.3932951 21.8013521,25.9242408 C21.4357454,25.3218392 21.1294429,24.6749539 20.7140042,24.1122551 C17.1770603,19.3222478 12.5738751,16.9451727 6.75443743,17.4124601 C5.5620715,17.5081833 4.42550924,17.8649888 3.35453174,18.4124093 C2.7617979,18.7154809 2.23053046,18.5681025 1.9662352,18.0403255 C1.70914706,17.5269954 1.91228479,16.9808221 2.50687189,16.6870006 C5.1586789,15.3769123 7.96883654,15.0782059 10.8631115,15.6380985 C12.2293749,15.9022987 14.8867417,16.8503849 14.8764458,16.8918546" id="Fill-26" fill="#FBD1B6"></path>
                    <g id="Group-30" transform="translate(0, 32.8081)">
                        <mask id="mask-16" fill="white">
                            <use xlink:href="#path-15"></use>
                        </mask>
                        <g id="Clip-29"></g>
                        <path d="M-7.28523126,6.73758771 C-6.98973948,6.59156041 -6.7092797,6.38015861 -6.39638788,6.30979527 C-3.74880219,5.71477299 -1.14291482,4.9868191 1.35651315,3.91650653 C3.53512149,2.98359474 5.63064206,1.90372024 7.39823884,0.258028924 C7.79339474,-0.109897517 8.34020896,-0.0744560153 8.69541684,0.301265477 C9.04527086,0.671166665 9.08686622,1.27730989 8.69078369,1.63390752 C8.03225917,2.22674718 7.35139258,2.80669903 6.61935547,3.29737155 C3.7790309,5.20102712 0.636728143,6.41809452 -2.62469795,7.3390539 C-3.78041055,7.66540673 -4.9554794,7.92430638 -6.12323817,8.2075266 C-6.50727452,8.30065148 -6.84703858,8.19671746 -7.10278825,7.86974102 C-7.34577103,7.55918616 -7.38232141,7.21558028 -7.28523126,6.73758771" id="Fill-28" fill="#FBD1B6" mask="url(#mask-16)"></path>
                    </g>
                    <path d="M20.4765091,39.7407309 C19.6563392,41.6874152 18.772232,43.2338495 17.7622061,44.7034766 C17.4083367,45.2183658 16.837533,45.3364348 16.3998552,45.00052 C15.9491015,44.6545237 15.8789866,44.0940075 16.2369743,43.5705958 C17.5478458,41.6538445 18.6764803,39.6323278 19.2766272,37.3442203 C19.5161093,36.430952 19.6107285,35.4701859 19.7192471,34.5236587 C19.7885383,33.9190745 20.1189331,33.5107178 20.659261,33.5222544 C21.1848657,33.5334793 21.5675635,33.9257263 21.5843458,34.5239705 C21.6196607,35.7839627 21.356601,36.993339 21.0052026,38.1803695 C20.8195678,38.8072995 20.586778,39.4183276 20.4765091,39.7407309" id="Fill-31" fill="#FBD1B6"></path>
                    <g id="Group-35" transform="translate(0, 43.897)">
                        <mask id="mask-18" fill="white">
                            <use xlink:href="#path-17"></use>
                        </mask>
                        <g id="Clip-34"></g>
                        <path d="M4.34215379,5.20264734 C4.13407404,5.71826403 3.7255335,5.94598347 3.30937401,5.86948803 C2.86232687,5.78738015 2.53666817,5.43525168 2.51895926,4.97274528 C2.50763379,4.67445464 2.56714398,4.37429318 2.5498469,4.07683401 C2.52554862,3.66016251 2.50619236,3.23299367 2.40045367,2.83232802 C2.21945209,2.14657133 1.74203211,1.79860023 1.08175729,1.95325405 C0.298446691,2.1366976 -0.464786937,2.41908634 -1.21762173,2.70906227 C-1.60495275,2.85831152 -1.94873221,2.88294389 -2.28829035,2.63183929 C-2.83798741,2.22545726 -2.78434587,1.35085245 -2.16401907,1.0259547 C-1.17046659,0.505557047 -0.129038271,0.112894309 1.002479,0.0140530531 C2.30449606,-0.0996507679 3.26849936,0.479781409 3.90190194,1.63781429 C4.54117316,2.80634451 4.48094226,4.06290685 4.34215379,5.20264734" id="Fill-33" fill="#FBD1B6" mask="url(#mask-18)"></path>
                    </g>
                    <path d="M8.20567268,41.0365803 C8.81261484,41.3019239 9.02512182,42.1105306 8.5402888,42.5591098 C6.82242113,44.1484689 7.02895649,46.0140846 7.85025889,47.9829068 C7.99471009,48.3290071 8.1971271,48.6498515 8.35002093,48.9928337 C8.55871843,49.4611604 8.40973704,49.9488189 8.00294679,50.2039769 C7.60799682,50.4516517 7.04120859,50.3766113 6.79524,49.9523526 C5.44442047,47.6220479 4.75644973,45.2077645 6.06721829,42.6623163 C6.350355,42.1124014 6.81161045,41.6522855 7.2371392,41.1969505 C7.51564277,40.8990756 7.86539383,40.8878508 8.20567268,41.0365803" id="Fill-36" fill="#FBD1B6"></path>
                    <g id="Group-40">
                        <mask id="mask-20" fill="white">
                            <use xlink:href="#path-19"></use>
                        </mask>
                        <g id="Clip-39"></g>
                        <path d="M4.08205925,0.353800112 L33.8322121,12.2187003 C36.4002107,13.2428662 37.664133,16.1849265 36.6495769,18.7772489 L19.4133462,62.81794 C18.3987901,65.4103663 15.4840263,66.6861564 12.9160278,65.6619906 L-16.8340222,53.7969865 C-19.4021236,52.7728206 -20.665943,49.8305523 -19.6513869,47.2382299 L-16.3439382,38.7873546 L-15.7154777,39.0380434 L-19.0228234,47.4888149 C-19.9005472,49.7313993 -18.8073306,52.2765356 -16.5857885,53.1625732 L13.1643644,65.0274734 C15.3859065,65.9135109 17.9071618,64.8099395 18.7847826,62.567355 L36.0211163,18.5265601 C36.8986342,16.2842875 35.8054176,13.7391511 33.5838755,12.8532175 L3.83372262,0.988213387 C1.61218046,0.102279777 -0.909074776,1.20585123 -1.78659268,3.44812384 L-5.09404136,11.8989992 L-5.72250191,11.6483104 L-2.41505323,3.19743498 C-1.40049716,0.605112579 1.51406072,-0.670365749 4.08205925,0.353800112" id="Fill-38" fill="#E65800" mask="url(#mask-20)"></path>
                    </g>
                </g>
                <g id="Group-46" transform="translate(60, 65)">
                    <path d="M34.1226913,1.40395701 C41.3302917,7.54466345 50.0832064,12.9089382 59.2192133,16.0416411 C61.1612905,16.707019 63.0076724,17.2198817 64.7992676,17.4693853 C68.8201297,18.0375649 72.8137539,18.0930918 76.807378,17.926721 C79.1049987,17.8436931 81.3889486,17.6772174 83.6865693,17.5110567 C84.5893577,21.613958 85.21842,25.7862417 85.3687984,30.0000918 C85.546622,35.0732965 84.8354315,40.0633684 83.9327467,45.0534403 L83.8643928,45.0534403 C76.451731,44.873424 69.2578013,45.4276432 62.050201,47.0634295 C61.6263037,47.1603128 61.1202782,47.340539 60.6962773,47.4375274 C55.7453889,48.5603461 45.0502934,51.3604125 41.6858352,52.9267114 C36.1467931,55.5188407 35.9280609,57.8197949 32.0027906,60.1208541 C30.5257265,60.9801038 29.5411207,61.2158569 28.3238012,60.8000875 C25.5885088,59.8573901 25.0004588,58.5821612 26.2723578,55.3801809 C27.5305861,52.1644501 31.8112963,47.7979798 34.5466922,45.1782445 C28.9803086,49.7386916 22.5250146,53.5644833 15.9328058,56.1425472 C14.1822228,56.8216756 13.2111842,57.0712841 11.6109797,56.9881513 C10.0108787,56.891058 8.71153462,56.0732698 8.1098138,54.6316701 C7.50798943,53.2040309 8.05513074,51.7347203 8.97148629,50.5979412 C9.87417108,49.4752276 11.1597409,48.7822437 12.3906276,48.0752993 C16.4935143,45.7048577 20.4597969,43.1546098 24.4669882,40.631758 C18.5860735,43.3207706 12.8008541,44.7206988 6.37290163,45.0117689 C5.05999031,45.0672957 3.82900002,44.9981233 2.62545483,44.4713002 C1.4220132,43.9445821 0.437303823,42.9326072 0.314266934,41.5881009 C0.191126478,40.2574501 0.943329278,39.1900533 1.92803866,38.4275821 C2.9264188,37.6514653 4.08884813,37.3880013 5.27872256,37.0277588 C11.6520956,35.1288234 18.0663773,33.2989555 24.3849637,31.2336493 C18.763897,31.9544491 12.9786776,32.356468 7.38495254,32.2593747 C5.98991306,32.2316637 4.34869624,31.9405937 3.22727921,31.6495236 C0.615023774,30.9425793 -2.55794018,26.1188781 3.36409043,24.9960595 C9.28601747,23.8870963 27.9135746,20.712932 36.2425921,19.5069804 C33.6029951,16.097168 31.1412216,12.9921761 28.4742832,9.04158004 C27.1065852,7.01784034 26.204004,3.0810998 28.4468381,1.3622856 C30.70355,-0.370384069 31.8387414,-0.550400334 34.1226913,1.40395701" id="Fill-42" fill="#FDB6B4"></path>
                    <polyline id="Fill-44" fill="#00A6A6" points="91.9405529 13.985278 82.2599939 14.5904056 83.0146823 47.5441936 92 47.7509761"></polyline>
                </g>
                <g id="Group-71" transform="translate(9, 111)">
                    <g id="Group-49">
                        <mask id="mask-22" fill="white">
                            <use xlink:href="#path-21"></use>
                        </mask>
                        <g id="Clip-48"></g>
                        <path d="M75.1771787,13.9467879 L68.9954603,53.8521003 C68.6812929,55.8795106 66.7906596,57.2715734 64.770461,56.9551574 L3.13068752,47.3012718 C1.11048884,46.9849606 -0.269596324,45.0806999 0.0445710985,43.0531848 L6.22628942,3.1479773 C6.5403526,1.120567 8.43109012,-0.271495845 10.4511846,0.0448153775 L72.0910622,9.69870096 C74.1111567,10.015117 75.4912419,11.9193776 75.1771787,13.9467879" id="Fill-47" fill="#F69355" mask="url(#mask-22)"></path>
                    </g>
                    <polygon id="Fill-50" fill="#FBD1B6" points="29.709658 7.60063944 26.172825 30.4318535 8.4531152 27.6566365 11.9899483 4.82542245"></polygon>
                    <g id="Group-54" transform="translate(35.4591, 8.6973)">
                        <mask id="mask-24" fill="white">
                            <use xlink:href="#path-23"></use>
                        </mask>
                        <g id="Clip-53"></g>
                        <polygon id="Fill-52" fill="#FBD1B6" mask="url(#mask-24)" points="172.569364 5.01287258 166.333317 12.7703581 0.242648166 7.75748556 6.47869522 0"></polygon>
                    </g>
                    <g id="Group-57" transform="translate(34.3698, 22.5544)">
                        <mask id="mask-26" fill="white">
                            <use xlink:href="#path-25"></use>
                        </mask>
                        <g id="Clip-56"></g>
                        <polygon id="Fill-55" fill="#FBD1B6" mask="url(#mask-26)" points="32.1981999 5.01287258 32.0071352 6.24646539 0 1.23359281 0.191168896 0"></polygon>
                    </g>
                    <g id="Group-60" transform="translate(33.2338, 29.8878)">
                        <mask id="mask-28" fill="white">
                            <use xlink:href="#path-27"></use>
                        </mask>
                        <g id="Clip-59"></g>
                        <polygon id="Fill-58" fill="#FBD1B6" mask="url(#mask-28)" points="32.1981999 5.01287258 32.0071352 6.24646539 0 1.23359281 0.191168896 0"></polygon>
                    </g>
                    <g id="Group-63" transform="translate(32.0978, 37.2211)">
                        <mask id="mask-30" fill="white">
                            <use xlink:href="#path-29"></use>
                        </mask>
                        <g id="Clip-62"></g>
                        <polygon id="Fill-61" fill="#FBD1B6" mask="url(#mask-30)" points="32.1981999 5.01287258 32.0071352 6.24646539 0 1.23359281 0.191168896 0"></polygon>
                    </g>
                    <g id="Group-66" transform="translate(6.2427, 40.683)">
                        <mask id="mask-32" fill="white">
                            <use xlink:href="#path-31"></use>
                        </mask>
                        <g id="Clip-65"></g>
                        <polygon id="Fill-64" fill="#FBD1B6" mask="url(#mask-32)" points="56.9172554 8.88427879 56.7261908 10.1178716 0 1.23359281 0.191168896 0"></polygon>
                    </g>
                    <path d="M23.9678262,16.9596156 C23.5702699,19.5262643 21.1797206,21.2820116 18.6223936,20.8815394 C16.0697573,20.4818008 14.3235951,18.078129 14.7211514,15.5114804 C15.1195415,12.9401154 17.5099866,11.184368 20.0627272,11.5842114 C22.61995,11.9846836 24.3661121,14.3883555 23.9678262,16.9596156" id="Fill-67" fill="#FFFFFF"></path>
                    <path d="M26.7512203,26.6982806 L26.1728145,30.431864 L8.45310477,27.656647 L9.00930828,24.0662316 C10.9568544,21.7477689 13.8543036,20.3192328 16.9983753,20.3003673 C17.5585398,20.2970135 18.1275643,20.3385175 18.7009668,20.4283382 C19.2704082,20.51753 19.8211915,20.6513701 20.3498767,20.8252469 C23.2834958,21.7840326 25.5781479,23.9663494 26.7512203,26.6982806" id="Fill-69" fill="#FFFFFF"></path>
                </g>
                <g id="Group-103">
                    <path d="M121.153844,30.3158173 L121.153844,30.3158173 L121.153844,168.587509 C121.153844,172.190102 118.455038,175.109947 115.126166,175.109947 L52.6025115,175.109947 C50.2040229,175.109947 48.1280017,173.587782 47.1642388,171.390968 C46.7935207,170.539506 46.5822166,169.595641 46.5822166,168.591559 L46.5822166,26.8895182 C46.5822166,25.1883603 47.1830606,23.6394085 48.1664774,22.4772015 C49.2679208,21.1754549 50.8494779,20.3588784 52.6062551,20.3588784 L76.9617558,20.3588784 C77.8476316,20.3588784 78.6800574,20.7090771 79.34683,21.306481 C79.6314458,21.561473 79.8864249,21.8607978 80.1015766,22.1984338 C80.3273351,22.5587034 80.5962486,22.8838805 80.9001023,23.1662821 C81.6941564,23.9037447 82.7286314,24.3470736 83.8679265,24.3470736 C85.4361731,24.3470736 86.8151611,23.4917706 87.638124,22.1903355 C87.7613501,21.9950424 87.8986145,21.813454 88.0466938,21.6450514 C88.0590684,21.6310351 88.0706111,21.6160844 88.0831937,21.6022758 C88.089121,21.5957349 88.0954643,21.5897131 88.1013916,21.5831722 C88.5770338,21.0635326 89.1650873,20.6869625 89.8106462,20.4976912 C89.8769907,20.4782761 89.9440631,20.461249 90.0115515,20.445883 C90.0314133,20.4413147 90.051067,20.4353968 90.0711368,20.4312438 C90.2979351,20.3835885 90.5305568,20.3588784 90.766922,20.3588784 L115.126166,20.3588784 C117.528295,20.3588784 119.604316,21.8851965 120.568183,24.0901089 C120.938797,24.9375213 121.153844,25.8854353 121.153844,26.8895182 L121.153844,30.3158173 Z M115.126686,17.3672907 L52.5993919,17.3672907 C47.7502125,17.3672907 43.8187292,21.6267783 43.8187292,26.8883761 L43.8187292,168.584706 C43.8187292,173.838206 47.7502125,178.105688 52.5993919,178.105688 L115.126686,178.105688 C119.983249,178.105688 123.914732,173.838206 123.914732,168.584706 L123.914732,26.8883761 C123.914732,21.6267783 119.983249,17.3672907 115.126686,17.3672907 L115.126686,17.3672907 Z" id="Fill-72" fill="#008F8F"></path>
                    <mask id="mask-34" fill="white">
                        <use xlink:href="#path-33"></use>
                    </mask>
                    <g id="Clip-75"></g>
                    <path d="M53.0521983,133.526931 L114.746235,133.526931 L114.746235,61.2591268 L53.0521983,61.2591268 L53.0521983,133.526931 Z M120.602332,24.2176984 C119.638465,22.0128898 117.562444,20.4865717 115.160316,20.4865717 L90.8010718,20.4865717 C90.5647065,20.4865717 90.3320848,20.5112818 90.1052865,20.558937 C90.0852168,20.56309 90.065667,20.569008 90.0457012,20.5735762 C89.9782129,20.5889422 89.9111405,20.6059694 89.844796,20.6253845 C89.199237,20.8146558 88.6111835,21.191122 88.1355413,21.7108655 C88.129614,21.7174064 88.1232707,21.7233243 88.1173434,21.7299691 C88.1047608,21.7437777 88.0932181,21.7587284 88.0808435,21.7727446 C87.9327643,21.9411473 87.7954998,22.1227357 87.6722737,22.3180288 C86.8493108,23.6193601 85.4703228,24.4747669 83.9021802,24.4747669 C82.7627811,24.4747669 81.7283062,24.0314379 80.934252,23.2938715 C80.6303984,23.0115738 80.3614848,22.6862929 80.1357263,22.3261271 C79.9205747,21.9883873 79.6655955,21.6891662 79.3809797,21.4341742 C78.7142072,20.8367703 77.8817813,20.4865717 76.9959055,20.4865717 L52.6404049,20.4865717 C50.8836276,20.4865717 49.3020705,21.3031482 48.2006271,22.6048948 C47.2172104,23.7671018 46.6163663,25.3159497 46.6163663,27.0171076 L46.6163663,168.719252 C46.6163663,169.723335 46.8276704,170.6672 47.1983885,171.518661 C48.1621515,173.715475 50.2381726,175.23764 52.6366613,175.23764 L115.160316,175.23764 C118.489187,175.23764 121.187994,172.317795 121.187994,168.715203 L121.187994,30.4435106 L121.187994,30.4435106 L121.187994,27.0171076 C121.187994,26.0131286 120.972946,25.0652145 120.602332,24.2176984 L120.602332,24.2176984 Z" id="Fill-74" fill="#E6E6E6" mask="url(#mask-34)"></path>
                    <path d="M85.3407327,20.9443321 C85.3407327,21.7586245 84.6855028,22.4197764 83.8699231,22.4197764 C83.0543434,22.4197764 82.3920423,21.7586245 82.3920423,20.9443321 C82.3920423,20.1299359 83.0543434,19.4688878 83.8699231,19.4688878 C84.6855028,19.4688878 85.3407327,20.1299359 85.3407327,20.9443321" id="Fill-76" fill="#FFFFFF" mask="url(#mask-34)"></path>
                    <path d="M95.4480149,24.9552752 L95.1337624,24.6415187 C95.8059424,23.9702959 96.7010731,23.6006821 97.6542293,23.6006821 C98.6072815,23.6006821 99.5024122,23.9702959 100.174592,24.6414149 L99.8603397,24.9551713 C99.2720783,24.3678384 98.4885269,24.0444263 97.6542293,24.0444263 C96.8198277,24.0444263 96.0362763,24.3679422 95.4480149,24.9552752" id="Fill-77" fill="#CCCCCC" mask="url(#mask-34)"></path>
                    <path d="M96.0764886,25.5827569 L95.7622361,25.2690005 C96.8056541,24.2275409 98.5030541,24.2274371 99.5461601,25.2688966 L99.2319076,25.5826531 C98.362046,24.7141645 96.9465581,24.7140606 96.0764886,25.5827569" id="Fill-78" fill="#CCCCCC" mask="url(#mask-34)"></path>
                    <path d="M98.6034131,26.210249 C98.0798323,25.6875985 97.2283767,25.6879099 96.7051079,26.210249 L96.3908554,25.8964926 C96.7277773,25.5601025 97.1764865,25.3747765 97.6543125,25.3747765 C98.1320344,25.3747765 98.5807437,25.5601025 98.9176656,25.8964926 L98.6034131,26.210249 Z" id="Fill-79" fill="#CCCCCC" mask="url(#mask-34)"></path>
                    <path d="M98.3288114,27.1574674 C98.3288114,27.5301959 98.0266216,27.8349197 97.6531998,27.8349197 C97.279882,27.8349197 96.9776922,27.5301959 96.9776922,27.1574674 C96.9776922,26.7847389 97.279882,26.4829222 97.6531998,26.4829222 C98.0266216,26.4829222 98.3288114,26.7847389 98.3288114,27.1574674" id="Fill-80" fill="#CCCCCC" mask="url(#mask-34)"></path>
                    <path d="M107.752038,23.8588408 C107.362706,23.8588408 107.045958,24.1737393 107.045958,24.561107 L107.045958,26.8745156 C107.045958,27.2617795 107.362706,27.576678 107.752038,27.576678 L114.501499,27.576678 C114.890831,27.576678 115.207683,27.2617795 115.207683,26.8745156 L115.207683,24.561107 C115.207683,24.1737393 114.890831,23.8588408 114.501499,23.8588408 L107.752038,23.8588408 Z M114.501499,27.8348885 L107.752038,27.8348885 C107.220034,27.8348885 106.787339,27.4040185 106.787339,26.8745156 L106.787339,24.561107 C106.787339,24.0316041 107.220034,23.6006302 107.752038,23.6006302 L114.501499,23.6006302 C115.033502,23.6006302 115.466197,24.0316041 115.466197,24.561107 L115.466197,26.8745156 C115.466197,27.4040185 115.033502,27.8348885 114.501499,27.8348885 L114.501499,27.8348885 Z" id="Fill-81" fill="#CCCCCC" mask="url(#mask-34)"></path>
                    <path d="M112.449717,24.2204186 L107.752049,24.2204186 C107.562374,24.2204186 107.407951,24.3732476 107.407951,24.5610654 L107.407951,26.8744741 C107.407951,27.0622919 107.562374,27.2151209 107.752049,27.2151209 L112.449717,27.2151209 L112.449717,24.2204186 Z" id="Fill-82" fill="#CCCCCC" mask="url(#mask-34)"></path>
                    <polygon id="Fill-83" fill="#CCCCCC" mask="url(#mask-34)" points="115.336888 26.4355888 115.9343 26.4355888 115.9343 25.000013 115.336888 25.000013"></polygon>
                    <polygon id="Fill-84" fill="#CCCCCC" mask="url(#mask-34)" points="101.529216 26.4832856 101.529216 27.8348678 100.891352 27.8348678 100.891352 26.974166"></polygon>
                    <polygon id="Fill-85" fill="#CCCCCC" mask="url(#mask-34)" points="102.465151 25.7629644 102.465151 27.8348781 101.827288 27.8348781 101.827288 26.2538447"></polygon>
                    <polygon id="Fill-86" fill="#CCCCCC" mask="url(#mask-34)" points="103.402481 25.0412519 103.402481 27.8349508 102.764617 27.8349508 102.764617 25.5321323"></polygon>
                    <polygon id="Fill-87" fill="#CCCCCC" mask="url(#mask-34)" points="104.338406 24.3209514 104.338406 27.8348781 103.700542 27.8348781 103.700542 24.8118318"></polygon>
                    <polygon id="Fill-88" fill="#CCCCCC" mask="url(#mask-34)" points="105.275735 23.600651 105.275735 27.8349093 104.637871 27.8349093 104.637871 24.0915313"></polygon>
                    <path d="M64.4699714,25.7177594 C64.4699714,25.5717827 64.3632795,25.4470899 64.2200877,25.4196804 L64.2200877,24.2455336 L64.1074684,24.2455336 L64.1074684,25.4196804 C63.9642766,25.4439752 63.8575847,25.568668 63.8575847,25.7177594 C63.8575847,25.8851238 63.9946412,26.021964 64.1622702,26.021964 C64.226223,26.021964 64.2871601,26.00068 64.3389462,25.9672487 L64.8873802,26.5117023 L64.9665152,26.4295774 L64.4181852,25.8881347 C64.4516695,25.8394412 64.4699714,25.7816112 64.4699714,25.7177594" id="Fill-89" fill="#CCCCCC" mask="url(#mask-34)"></path>
                    <path d="M64.1622598,27.5307254 C63.1599172,27.5307254 62.3464172,26.7185095 62.3464172,25.717749 C62.3464172,24.7169885 63.1599172,23.9048764 64.1622598,23.9048764 C65.1646024,23.9048764 65.981118,24.7169885 65.981118,25.717749 C65.981118,26.7185095 65.1646024,27.5307254 64.1622598,27.5307254 M66.3855283,24.336577 C66.3855283,24.0971586 66.1901344,23.9020731 65.954809,23.9020731 C65.7873879,23.9020731 65.6433642,23.9981104 65.5706765,24.1368194 C65.5703645,24.1366118 65.5700525,24.1363003 65.5697406,24.1359888 C65.1920553,23.8013637 64.7015428,23.6006717 64.1622598,23.6006717 C63.6229768,23.6006717 63.1324643,23.8013637 62.7576907,24.1359888 C62.7574827,24.1361965 62.7572747,24.1364041 62.7570668,24.1367156 C62.684483,23.9980066 62.5414992,23.9020731 62.3773017,23.9020731 C62.1375049,23.9020731 61.942111,24.0971586 61.942111,24.336577 C61.942111,24.5373728 62.0851988,24.7079558 62.2763292,24.7536384 C62.127106,25.0425809 62.0418357,25.3710803 62.0418357,25.717749 C62.0418357,26.885874 62.9922882,27.8349301 64.1622598,27.8349301 C65.3322314,27.8349301 66.2858036,26.885874 66.2858036,25.717749 C66.2858036,25.3713918 66.2005332,25.0432038 66.0516221,24.754469 C66.2411926,24.7097208 66.3855283,24.5383072 66.3855283,24.336577" id="Fill-90" fill="#CCCCCC" mask="url(#mask-34)"></path>
                    <path d="M55.7397014,24.8898764 C55.7397014,25.4341223 55.2988953,25.8741289 54.753893,25.8741289 C54.2125302,25.8741289 53.771932,25.4341223 53.771932,24.8898764 C53.771932,24.3456304 54.2125302,23.9056239 54.753893,23.9056239 C55.2988953,23.9056239 55.7397014,24.3456304 55.7397014,24.8898764" id="Fill-91" fill="#CCCCCC" mask="url(#mask-34)"></path>
                    <path d="M59.369806,26.4723633 C59.369806,27.2250881 58.7551315,27.8349508 58.0012168,27.8349508 L54.7693664,27.8349508 C54.0154517,27.8349508 53.4046248,27.2250881 53.4046248,26.4723633 C53.4046248,25.7197424 54.0154517,25.1060382 54.7693664,25.1060382 L54.773214,25.1060382 C54.8272879,24.2645438 55.5270247,23.6006925 56.3852396,23.6006925 C57.2435585,23.6006925 57.9432953,24.2645438 57.9973692,25.1060382 L58.0012168,25.1060382 C58.7551315,25.1060382 59.369806,25.7197424 59.369806,26.4723633" id="Fill-92" fill="#CCCCCC" mask="url(#mask-34)"></path>
                    <path d="M101.365174,170.0471 C101.365174,170.439036 101.203265,170.798786 100.94423,171.057412 C100.685091,171.316038 100.324876,171.477692 99.9323204,171.477692 L67.8025552,171.477692 C67.0092289,171.477692 66.3697013,170.835125 66.3697013,170.0471 C66.3697013,169.651115 66.5276594,169.291468 66.7865901,169.032738 C67.0457288,168.774112 67.405944,168.616508 67.8025552,168.616508 L99.9323204,168.616508 C100.721591,168.616508 101.365174,169.255026 101.365174,170.0471" id="Fill-93" fill="#CCCCCC" mask="url(#mask-34)"></path>
                    <polygon id="Fill-94" fill="#FF721A" mask="url(#mask-34)" points="65.484283 133.561265 52.9071139 133.561265 52.9071139 118.999001 53.6624844 118.999001 53.6624844 132.686963 65.484283 132.686963"></polygon>
                    <polygon id="Fill-95" fill="#FF721A" mask="url(#mask-34)" points="53.6624636 75.842042 52.9070931 75.842042 52.9070931 61.2844495 65.4842622 61.2844495 65.4842622 62.1588561 53.6624636 62.1588561"></polygon>
                    <polygon id="Fill-96" fill="#FF721A" mask="url(#mask-34)" points="115.355294 75.8463092 114.599923 75.8463092 114.599923 62.1588664 102.778125 62.1588664 102.778125 61.2844599 115.355294 61.2844599"></polygon>
                    <polygon id="Fill-97" fill="#FF721A" mask="url(#mask-34)" points="115.355294 133.561265 102.778125 133.561265 102.778125 132.686963 114.599923 132.686963 114.599923 119.003673 115.355294 119.003673"></polygon>
                    <path d="M111.906982,6.84760439 C111.929443,5.50816966 111.939634,4.16966935 111.937346,2.83002697 C111.872666,2.86397745 111.807985,2.89782411 111.743408,2.93177459 C112.23652,3.33565034 112.729945,3.73931845 113.223473,4.1427789 C113.462958,4.33848733 113.703067,4.53336517 113.942863,4.72845066 C114.062242,4.82563002 114.196179,4.91844876 114.291432,5.04116885 C114.447622,5.24227614 114.30443,5.36426945 114.094374,5.39946582 C113.818181,5.44566755 113.519423,5.42552567 113.239903,5.4338316 C112.939273,5.44276048 112.638643,5.4510664 112.338117,5.45999528 C111.692142,5.47920273 111.046167,5.5001752 110.400296,5.5212515 C110.429725,5.59226718 110.459257,5.66338669 110.488686,5.73440238 C111.636716,4.71858737 112.897574,3.85279819 114.239958,3.11346676 C114.191915,3.05927058 114.143873,3.00517823 114.09583,2.95098205 C113.746118,3.60071327 113.369264,4.23435176 112.975253,4.85812696 C112.584049,5.47743773 112.157281,6.07203835 111.757863,6.68553497 C111.686007,6.79579616 111.848124,6.90169675 111.926843,6.79828794 C112.813135,5.63255093 113.557067,4.34450913 114.283009,3.07546714 C114.336147,2.98254457 114.243805,2.85805948 114.138777,2.91308625 C112.761141,3.63352169 111.475535,4.52817397 110.311802,5.55779758 C110.230899,5.62943621 110.294956,5.77447848 110.400296,5.77105228 C111.149323,5.7465498 111.898455,5.72142436 112.647378,5.69474157 C113.030055,5.68114061 113.412627,5.66681289 113.7952,5.65362722 C114.037909,5.64521747 114.358504,5.66193315 114.530709,5.45262376 C114.691267,5.25733063 114.598717,5.02050786 114.451886,4.85013251 C114.23403,4.59732082 113.925705,4.39797854 113.668022,4.18804621 C113.078513,3.7076521 112.487028,3.22964593 111.895855,2.75122448 C111.810689,2.6823891 111.701293,2.75236654 111.701917,2.85297209 C111.709716,4.18378942 111.727914,5.51377616 111.762334,6.84417819 C111.764726,6.93668547 111.905422,6.94104608 111.906982,6.84760439" id="Fill-98" fill="#00A6A6" mask="url(#mask-34)"></path>
                    <path d="M25.0814842,64.0244713 C24.3732203,64.4982207 24.0557442,65.3843594 24.4471559,66.1681276 C24.8390876,66.9528301 25.7480488,67.2982529 26.5872338,67.1639045 C27.4201796,67.0305944 28.1087897,66.4012127 28.2808902,65.5697893 C28.4457116,64.7735622 28.0663625,63.9501333 27.381496,63.5198862 C26.6747919,63.0758305 25.4531381,63.0782185 24.9481712,63.841118 C24.9005446,63.9130681 24.9785358,64.0368264 25.0609985,63.968614 C25.5988256,63.5238315 26.3036579,63.3248007 26.97459,63.5879948 C27.6324196,63.8461015 28.1005746,64.5150402 28.0888239,65.2238474 C28.0763454,65.9788562 27.5456934,66.6604614 26.8318141,66.8899127 C26.1107597,67.1216481 25.2340349,66.9429668 24.7631762,66.3212681 C24.2184858,65.6020786 24.4191831,64.6137769 25.1412774,64.0992247 C25.1919197,64.0630939 25.1320224,63.9906247 25.0814842,64.0244713" id="Fill-99" fill="#00A6A6" mask="url(#mask-34)"></path>
                    <path d="M131.864747,161.590284 C131.574828,162.708885 131.880449,163.909403 132.58081,164.817137 C132.678559,164.943803 132.783795,165.064758 132.895998,165.178964 C133.00789,165.292963 133.129764,165.425131 133.26994,165.50383 C133.30904,165.525841 133.334725,165.471229 133.309456,165.4433 C133.21441,165.338023 133.093472,165.252887 132.991876,165.153008 C132.890487,165.053337 132.79461,164.948163 132.704556,164.83811 C132.526632,164.620702 132.371898,164.384295 132.24368,164.13439 C131.992653,163.645275 131.841766,163.10352 131.815873,162.553979 C131.800898,162.233994 131.819408,161.908816 131.884713,161.594852 C131.887105,161.583536 131.867659,161.578967 131.864747,161.590284" id="Fill-100" fill="#00A6A6" mask="url(#mask-34)"></path>
                    <path d="M85.3455474,190.451931 C85.9637574,190.85238 86.8406902,190.778977 87.363959,190.251031 C87.6697884,189.942362 87.8863959,189.508585 88.3407205,189.396247 C88.7771591,189.288374 89.2251405,189.479826 89.6331903,189.613447 C89.9885181,189.729834 90.360588,189.835112 90.7375454,189.777489 C91.0990085,189.722255 91.4277153,189.527792 91.6934052,189.28339 C92.0167047,188.986038 92.2445429,188.608638 92.4830919,188.244527 C92.7245526,187.875951 92.9921143,187.528036 93.2959679,187.208258 C93.9703316,186.49862 94.7824798,185.942435 95.6665878,185.525789 C95.7680803,185.477926 95.7075591,185.316375 95.6030509,185.361954 C94.8372816,185.696475 94.1319294,186.158908 93.5185028,186.725995 C93.2141292,187.007255 92.9342969,187.314678 92.6822294,187.643593 C92.411028,187.997321 92.1966043,188.388842 91.9324742,188.747243 C91.6675122,189.106786 91.3292384,189.434143 90.8924878,189.569114 C90.5050277,189.688927 90.1163196,189.607737 89.7380104,189.496334 C89.3582454,189.384619 88.9680815,189.228883 88.5655431,189.245495 C88.2168705,189.259926 87.9347504,189.431547 87.7014008,189.68166 C87.3879803,190.017635 87.1507831,190.371156 86.6892833,190.515367 C86.2628276,190.648574 85.7808421,190.605694 85.3894304,190.38974 C85.3475231,190.366587 85.3035361,190.424729 85.3455474,190.451931" id="Fill-101" fill="#00A6A6" mask="url(#mask-34)"></path>
                    <path d="M145.726223,126.211443 C144.397981,126.352851 142.860099,126.514402 141.913286,127.572058 C141.544648,127.983928 141.279582,128.522983 141.304019,129.085606 C141.329392,129.669824 141.692519,130.120836 142.053358,130.549214 C142.464216,131.036876 142.884328,131.573231 142.691742,132.249957 C142.487925,132.966447 141.813874,133.44466 141.163011,133.726439 C139.967146,134.244106 138.39734,134.366515 137.572713,135.501831 C137.08584,136.172016 137.217802,136.951008 137.35569,137.713181 C137.482244,138.413163 137.542869,139.280094 136.915924,139.771286 C136.847395,139.825067 136.926218,139.927126 136.997762,139.878432 C138.220248,139.045659 137.252014,137.470959 137.413299,136.3372 C137.623668,134.858122 139.474866,134.484874 140.637039,134.088681 C141.266999,133.873869 141.891553,133.599255 142.352845,133.104429 C142.734897,132.694531 142.987277,132.14063 142.854172,131.575515 C142.725434,131.029297 142.289724,130.619191 141.949682,130.197146 C141.724028,129.917029 141.521563,129.610644 141.46073,129.24944 C141.408215,128.938383 141.463641,128.618189 141.584268,128.329143 C142.25208,126.729214 144.244599,126.486265 145.749828,126.31018 C145.814925,126.302497 145.79028,126.204591 145.726223,126.211443" id="Fill-102" fill="#00A6A6" mask="url(#mask-34)"></path>
                </g>
            </g>
        </g>
    </g>
</svg>